<svg width="1439" height="1115" viewBox="0 0 1439 1115" fill="black" xmlns="http://www.w3.org/2000/svg">
<path d="M810.561 792.474L810.596 792.485L810.617 792.454L964.073 565.363L964.229 565.135L964.242 565.116L964.237 565.095L894.379 268.547L894.33 268.559L894.379 268.547L894.306 268.239L894.299 268.211L894.272 268.203L670.683 198.601L670.648 198.59L670.627 198.621L517.171 425.712L517.17 425.712L517.015 425.941L517.002 425.959L517.007 425.98L586.936 722.838L586.943 722.866L586.97 722.875L810.286 792.39L810.561 792.474ZM963.133 564.835L810.228 791.112L587.748 721.857L518.111 426.24L671.016 199.963L893.495 269.219L963.133 564.835Z" fill="#FADFAD" stroke="#FADFAD" stroke-width="0.1"/>
<path d="M805.128 1033.68L805.156 1033.71L805.188 1033.69L998.525 913.124L998.769 912.972L998.792 912.958L998.793 912.93L1002.69 616.501L1002.69 616.214L1002.69 616.192L1002.67 616.177L813.288 440.324L813.065 440.116L813.037 440.09L813.004 440.111L619.667 560.673L619.667 560.673L619.423 560.824L619.4 560.839L619.399 560.866L615.507 857.295L615.557 857.295L615.507 857.295L615.503 857.582L615.503 857.604L615.519 857.619L805.128 1033.68ZM805.26 1032.27L616.511 857.006L620.389 561.59L812.929 441.525L1001.68 616.788L997.799 912.204L805.26 1032.27Z" fill="#FADFAD" stroke="#FADFAD" stroke-width="0.1"/>
<path d="M827.821 1003.01L827.824 1003.04L827.846 1003.05L1027.66 1114.37L1027.68 1114.33L1027.66 1114.37L1027.92 1114.52L1027.96 1114.54L1027.98 1114.51L1189.96 941.352L1190.15 941.146L1190.17 941.129L1190.17 941.105L1152.29 656.668L1152.25 656.371L1152.25 656.346L1152.23 656.334L952.415 545.01L952.415 545.01L952.154 544.865L952.12 544.846L952.093 544.875L790.114 718.031L790.114 718.031L789.922 718.236L789.906 718.253L789.909 718.277L827.782 1002.71L827.821 1003.01ZM828.727 1002.2L790.983 718.726L952.294 546.283L1151.35 657.186L1189.09 940.659L1027.78 1113.1L828.727 1002.2Z" fill="#FADFAD" stroke="#FADFAD" stroke-width="0.1"/>
<path d="M1240.21 1015.51L1240.25 1015.53L1240.27 1015.5L1392.4 835.595L1392.59 835.366L1392.61 835.348L1392.6 835.324L1337.16 580.524L1337.1 580.221L1337.09 580.194L1337.07 580.184L1129.51 505.302L1129.51 505.302L1129.27 505.214L1129.23 505.202L1129.21 505.228L977.085 685.132L976.892 685.361L976.876 685.38L976.881 685.404L1032.32 940.203L1032.38 940.507L1032.39 940.534L1032.42 940.543L1239.97 1015.42L1239.98 1015.38L1239.97 1015.42L1240.21 1015.51ZM1391.49 834.968L1239.97 1014.15L1033.21 939.558L977.991 685.757L1129.51 506.57L1336.27 581.167L1391.49 834.968Z" fill="#FADFAD" stroke="#FADFAD" stroke-width="0.1"/>
<path d="M1231.12 829.772L1231.15 829.798L1231.18 829.78L1415.69 725.713L1415.92 725.582L1415.95 725.569L1415.95 725.543L1441.02 466.821L1441.05 466.509L1441.05 466.485L1441.03 466.468L1281.61 311.79L1281.61 311.79L1281.4 311.582L1281.37 311.556L1281.34 311.575L1096.83 415.64L1096.83 415.64L1096.6 415.771L1096.57 415.783L1096.57 415.809L1071.5 674.531L1071.47 674.844L1071.47 674.868L1071.49 674.884L1231.12 829.772ZM1231.29 828.375L1072.53 674.337L1097.51 416.603L1281.23 312.98L1440 467.018L1415.02 724.752L1231.29 828.375Z" fill="#FADFAD" stroke="#FADFAD" stroke-width="0.1"/>
<path d="M1149.69 576.353L1149.71 576.383L1149.74 576.382L1337.05 571.968L1337.33 571.961L1337.36 571.96L1337.37 571.928L1421.33 346.809L1421.43 346.545L1421.44 346.525L1421.43 346.506L1318.1 125.858L1317.97 125.573L1317.96 125.543L1317.93 125.544L1130.62 129.957L1130.62 129.957L1130.34 129.964L1130.3 129.964L1130.29 129.996L1046.33 355.118L1046.33 355.118L1046.24 355.381L1046.23 355.401L1046.24 355.42L1149.56 576.069L1149.69 576.353ZM1150.28 575.15L1047.35 355.338L1130.95 131.169L1317.38 126.777L1420.32 346.588L1336.71 570.758L1150.28 575.15Z" fill="#FADFAD" stroke="#FADFAD" stroke-width="0.1"/>
<path d="M1225.08 389.828L1225.12 389.845L1225.14 389.816L1357.88 239.945L1357.84 239.912L1357.88 239.945L1358.07 239.723L1358.09 239.705L1358.08 239.681L1312.89 -0.880226L1312.84 -1.16022L1312.84 -1.18438L1312.81 -1.19554L1134.94 -91.9091L1134.94 -91.9092L1134.68 -92.0445L1134.65 -92.0622L1134.62 -92.0332L1001.89 57.8403L1001.89 57.8404L1001.69 58.062L1001.67 58.0803L1001.68 58.1043L1046.87 298.663L1046.92 298.943L1046.93 298.968L1046.95 298.979L1224.82 389.692L1225.08 389.828ZM1224.91 388.419L1047.79 298.086L1002.78 58.4949L1134.86 -90.6359L1311.98 -0.303291L1356.99 239.288L1224.91 388.419Z" fill="#FADFAD" stroke="#FADFAD" stroke-width="0.1"/>
<path d="M1036.42 444.339L1036.44 444.367L1036.48 444.352L1207.32 368.25L1207.35 368.238L1207.35 368.21L1232.56 124.122L1232.59 123.782L1232.59 123.76L1232.58 123.744L1087.21 -44.3064L1087.21 -44.3064L1087.02 -44.5281L1087 -44.5561L1086.96 -44.541L916.384 31.4422L916.404 31.4879L916.384 31.4422L916.117 31.5612L916.091 31.573L916.088 31.6017L890.848 276.032L890.846 276.053L890.86 276.07L1036.23 444.118L1036.42 444.339ZM1206.45 367.23L1036.67 442.855L891.914 275.512L917 32.5811L1086.77 -43.0463L1231.53 124.297L1206.45 367.23Z" fill="#FADFAD" stroke="#FADFAD" stroke-width="0.1"/>
<path d="M977.201 405.11L977.233 405.11L977.247 405.081L1067.84 218.444L1067.8 218.422L1067.84 218.444L1067.97 218.166L1067.98 218.145L1067.98 218.124L982.806 27.2862L982.68 27.0039L982.667 26.975L982.636 26.9742L806.876 22.7742L806.876 22.7742L806.617 22.7672L806.585 22.7663L806.57 22.7954L715.978 209.433L715.978 209.433L715.843 209.711L715.832 209.732L715.842 209.753L801.011 400.591L801.137 400.873L801.15 400.902L801.182 400.903L976.941 405.103L977.201 405.11ZM1066.83 218.12L976.668 403.877L801.751 399.697L716.983 209.759L807.148 24.002L982.065 28.1818L1066.83 218.12Z" fill="#FADFAD" stroke="#FADFAD" stroke-width="0.1"/>
<path d="M813.177 808.951L813.2 808.98L813.234 808.967L960.14 754.579L960.407 754.481L960.435 754.471L960.439 754.442L989.99 549.482L989.993 549.461L989.98 549.445L872.635 399.191L872.635 399.191L872.446 398.948L872.423 398.919L872.389 398.932L725.483 453.32L725.483 453.32L725.216 453.418L725.188 453.428L725.184 453.458L695.633 658.417L695.63 658.438L695.643 658.455L812.987 808.709L813.027 808.678L812.987 808.709L813.177 808.951ZM959.555 753.523L813.5 807.594L696.704 658.039L726.067 454.372L872.123 400.301L988.92 549.856L959.555 753.523Z" fill="#FADFAD" stroke="#FADFAD" stroke-width="0.1"/>
<path d="M1153.48 799.987L1153.52 799.992L1153.53 799.96L1233.74 642.837L1233.7 642.814L1233.74 642.837L1233.88 642.566L1233.89 642.546L1233.88 642.524L1159.1 460.409L1159 460.147L1158.99 460.121L1158.96 460.117L1004.01 435.071L1004.01 435.071L1003.73 435.024L1003.69 435.018L1003.67 435.051L923.466 592.174L923.466 592.174L923.329 592.445L923.319 592.465L923.327 592.486L998.103 774.602L998.21 774.863L998.221 774.889L998.248 774.894L1153.2 799.94L1153.48 799.987ZM1232.74 642.483L1153.01 798.683L998.878 773.768L924.464 592.53L1004.2 436.33L1158.33 461.245L1232.74 642.483Z" fill="#FADFAD" stroke="#FADFAD" stroke-width="0.1"/>
<path d="M294.507 801.758L294.542 801.769L294.563 801.738L448.017 574.648L448.173 574.419L448.186 574.401L448.181 574.379L378.323 277.832L378.274 277.843L378.323 277.831L378.25 277.523L378.243 277.496L378.216 277.487L154.627 207.888L154.592 207.877L154.571 207.908L1.1146 434.999L1.11449 434.999L0.958689 435.227L0.946282 435.245L0.951332 435.267L70.8823 732.123L70.8888 732.15L70.9161 732.159L294.232 801.674L294.507 801.758ZM447.077 574.12L294.172 800.396L71.6925 731.141L2.05493 435.524L154.96 209.248L377.439 278.505L447.077 574.12Z" fill="#FADFAD" stroke="#FADFAD" stroke-width="0.1"/>
<path d="M279.782 1033.68L279.81 1033.71L279.843 1033.69L473.18 913.124L473.424 912.972L473.447 912.958L473.448 912.93L477.34 616.501L477.344 616.214L477.344 616.192L477.328 616.177L287.943 440.324L287.943 440.324L287.719 440.116L287.691 440.09L287.659 440.111L94.3219 560.673L94.3218 560.673L94.0777 560.824L94.0544 560.839L94.0541 560.866L90.1618 857.295L90.2118 857.295L90.1618 857.295L90.1581 857.582L90.1578 857.604L90.174 857.619L279.559 1033.47L279.782 1033.68ZM279.916 1032.27L91.1675 857.008L95.046 561.592L287.585 441.527L476.334 616.791L472.456 912.206L279.916 1032.27Z" fill="#FADFAD" stroke="#FADFAD" stroke-width="0.1"/>
<path d="M427.639 1067.6L427.655 1067.62L427.685 1067.62L646.489 1056.24L646.775 1056.23L646.809 1056.22L646.819 1056.19L729.387 811.354L729.485 811.064L729.492 811.043L729.481 811.023L593.229 577.625L593.229 577.625L593.086 577.382L593.071 577.356L593.041 577.358L374.239 588.738L374.239 588.738L373.953 588.752L373.919 588.753L373.908 588.786L291.341 833.624L291.243 833.913L291.236 833.935L291.247 833.955L427.497 1067.35L427.54 1067.33L427.497 1067.35L427.639 1067.6ZM428.156 1066.38L292.371 833.774L374.601 589.935L592.568 578.598L728.353 811.199L646.123 1055.04L428.156 1066.38Z" fill="#FADFAD" stroke="#FADFAD" stroke-width="0.1"/>
<path d="M739.57 1008.31L739.603 1008.32L739.625 1008.3L891.752 828.392L891.945 828.163L891.961 828.144L891.956 828.12L836.517 573.321L836.452 573.018L836.446 572.99L836.42 572.981L628.87 498.099L628.87 498.099L628.622 498.01L628.589 497.999L628.567 498.025L476.44 677.929L476.44 677.929L476.247 678.158L476.231 678.176L476.236 678.201L531.674 933L531.74 933.303L531.746 933.33L531.772 933.34L739.322 1008.22L739.339 1008.17L739.322 1008.22L739.57 1008.31ZM890.844 827.765L739.325 1006.95L532.568 932.354L477.348 678.553L628.865 499.367L835.622 573.964L890.844 827.765Z" fill="#FADFAD" stroke="#FADFAD" stroke-width="0.1"/>
<path d="M670.018 569.148L670.032 569.178L670.065 569.177L857.372 564.765L857.654 564.758L857.687 564.757L857.699 564.725L941.655 339.606L941.755 339.342L941.762 339.322L941.753 339.303L838.43 118.655L838.297 118.37L838.283 118.34L838.25 118.341L650.943 122.754L650.943 122.754L650.661 122.761L650.627 122.761L650.616 122.793L566.66 347.912L566.66 347.912L566.56 348.176L566.553 348.196L566.562 348.215L670.018 569.148ZM670.608 567.947L567.676 348.135L651.278 123.966L837.709 119.574L940.641 339.385L857.039 563.555L670.608 567.947Z" fill="#FADFAD" stroke="#FADFAD" stroke-width="0.1"/>
<path d="M680.147 431.48L680.182 431.498L680.207 431.469L812.944 281.596L812.907 281.562L812.944 281.595L813.14 281.374L813.156 281.355L813.151 281.331L767.96 40.7701L767.907 40.4901L767.903 40.4659L767.881 40.4548L590.01 -50.2588L590.01 -50.2589L589.747 -50.3941L589.712 -50.4119L589.686 -50.3828L456.754 99.7122L456.738 99.7306L456.743 99.7546L501.936 340.316L501.988 340.596L501.993 340.62L502.015 340.631L679.884 431.345L680.147 431.48ZM679.974 430.069L502.852 339.737L457.843 100.145L589.92 -48.9855L767.042 41.347L812.051 280.939L679.974 430.069Z" fill="#FADFAD" stroke="#FADFAD" stroke-width="0.1"/>
<path d="M492.755 397.952L492.779 397.976L492.81 397.964L663.389 329.407L663.656 329.3L663.683 329.289L663.687 329.259L688.892 109.029L688.928 108.721L688.931 108.697L688.915 108.68L543.547 -42.9433L543.547 -42.9434L543.355 -43.1418L543.332 -43.166L543.301 -43.1534L372.722 25.4027L372.455 25.5101L372.427 25.5212L372.424 25.5508L347.184 246.09L347.182 246.113L347.198 246.13L492.564 397.753L492.6 397.719L492.564 397.754L492.755 397.952ZM662.779 328.369L493.001 396.603L348.248 245.62L373.333 26.4411L543.111 -41.7904L687.864 109.192L662.779 328.369Z" fill="#FADFAD" stroke="#FADFAD" stroke-width="0.1"/>
<path d="M436.991 458.952L437.023 458.953L437.037 458.924L527.63 272.288L527.765 272.011L527.775 271.99L527.766 271.968L442.597 81.1306L442.471 80.8483L442.458 80.8194L442.426 80.8187L266.666 76.6186L266.666 76.6186L266.407 76.6116L266.375 76.6108L266.361 76.6398L175.768 263.277L175.768 263.277L175.633 263.555L175.623 263.576L175.632 263.597L260.802 454.433L260.928 454.715L260.94 454.744L260.972 454.745L436.732 458.945L436.991 458.952ZM526.623 271.962L436.458 457.719L261.541 453.539L176.774 263.601L266.938 77.8417L441.855 82.0216L526.623 271.962Z" fill="#FADFAD" stroke="#FADFAD" stroke-width="0.1"/>
<path d="M374.084 646.367L374.117 646.385L374.144 646.358L502.611 512.207L502.799 512.011L502.815 511.994L502.812 511.971L480.449 296.129L480.417 295.814L480.414 295.788L480.391 295.775L329.314 213.898L329.281 213.88L329.254 213.907L200.786 348.059L200.598 348.255L200.582 348.271L200.584 348.294L222.95 564.136L222.981 564.451L222.984 564.477L223.007 564.49L374.084 646.367ZM373.944 644.957L223.905 563.642L201.642 348.769L329.452 215.304L479.491 296.618L501.754 511.491L373.944 644.957Z" fill="#FADFAD" stroke="#FADFAD" stroke-width="0.1"/>
<path d="M341.015 803.696L341.037 803.722L341.07 803.711L497.28 749.323L497.562 749.225L497.591 749.215L497.595 749.185L529.017 544.226L529.02 544.204L529.006 544.186L404.23 393.933L404.23 393.932L404.027 393.69L404.005 393.663L403.973 393.675L247.762 448.063L247.48 448.161L247.452 448.171L247.447 448.2L216.026 653.16L216.022 653.182L216.037 653.199L340.812 803.453L340.851 803.421L340.812 803.453L341.015 803.696ZM496.663 748.265L341.354 802.34L217.157 652.784L248.381 449.118L403.691 395.045L527.887 544.599L496.663 748.265Z" fill="#FADFAD" stroke="#FADFAD" stroke-width="0.1"/>
</svg>
