<?xml version="1.0" encoding="UTF-8"?>
<svg xmlns="http://www.w3.org/2000/svg" version="1.1" xmlns:xlink="http://www.w3.org/1999/xlink" viewBox="0 0 219.6 65.7">
  <defs>
    <style>
      .cls-1 {
        fill: none;
      }

      .cls-2 {
        clip-path: url(#clippath);
      }

      .cls-3 {
        fill: #0c0d0f;
      }
    </style>
    <clipPath id="clippath">
      <rect class="cls-1" x="212.8" y="42.8" width="6.6" height="6.6"/>
    </clipPath>
  </defs>
  <!-- Generator: Adobe Illustrator 28.7.1, SVG Export Plug-In . SVG Version: 1.2.0 Build 142)  -->
  <g>
    <g id="Layer_1">
      <path class="cls-3" d="M21.7,41l-5.7,17.9c-.5-1.7-3.4-12.5-3.9-14.1-.2-.8-.4-1.7-.4-2.5,0-.4,0-.9.2-1.3v-.2c0,0-1.3.2-2.2.3-.8.1-2.2.4-2.2.4l.2.2c.5.6.7,1.1,1.3,3.3l6.2,20.8h.4l5.8-17.7,6,17.7h.4l6.2-20.7c.3-1.2.8-2.4,1.5-3.4h.1c-.2-.2-.8-.3-1.6-.5s-1.6-.3-1.6-.3v.2c.2.3.3.7.3,1,0,1-.2,2-.5,3,0,0-3.9,13.5-4,14l-6-18h-.2ZM35.7,12.7h0c.8,1.8,1.2,3.5,1.2,7.7,0,0-.2,12.7-.2,12.9-5.1-.9-10.3-1.5-15.5-1.6-5.2,0-10.3.6-15.4,1.6v-12.9c0-4.1.6-5.8,1.3-7.6h0c0-.1-7-.1-7-.1H.1c.8,1.8,1.2,3.5,1.2,7.7v32.2c.1,2.6-.3,5.2-1.3,7.6h0c0,.1,6.9.1,6.9.1h0c-.8-1.8-1.2-3.5-1.2-7.7v-16c5.1-1.1,10.3-1.7,15.5-1.6,5.2,0,10.4.5,15.5,1.6,0,.1.2,16,.2,16,0,4.2-.5,5.9-1.1,7.6h0c0,.1,6.8.1,6.8.1h0c-.8-1.8-1.2-3.5-1.2-7.7V20.4c0-4.1.6-5.8,1.3-7.6h0c0-.1-7.1-.1-7.1-.1ZM19.6,0h0c-.6,1.4-.8,2.8-.7,4.2,0,0,0,19.5,0,19.6h3.3c3.2,0,6.6.5,8.1-1h.1l-1.2,3.2c-2.3-.3-4.7-.4-7-.4-2.3,0-4.1,0-7.3.3h-.1c.5-1.4.8-2.8.7-4.2V4.2c.1-1.4,0-2.8-.6-4.1h0c0-.1,4.9-.1,4.9-.1Z"/>
      <path class="cls-3" d="M144.6,28.2h-5.5v-13.7h5.5c4.9,0,7.1,2.4,7.1,6.7s-2.1,7-7.1,7M144.6,12.6h-9.4c.5.9.7,1.8.6,2.8v12c0,1-.1,2-.6,2.8h9.5c5.5,0,10.4-2.9,10.4-9s-5.8-8.6-10.4-8.6M192.4,15.5c0-1,.1-2,.5-2.8h-3c.4.9.6,1.9.6,2.8v10.7l-11.5-13.6h-4.2c.4.9.6,1.9.6,2.8v12c0,1,0,2-.5,2.8h3c-.4-.9-.6-1.9-.6-2.8v-11.7l12.1,14.6h3v-14.8ZM82.8,27.5c-1.2,1-4.7.8-7.7.8h-3.2v-12.8c0-1,.1-2,.6-2.8h-4.3c.5.9.7,1.9.6,2.8v12c0,1-.1,2-.6,2.8h14l.5-2.8ZM165.8,15.5c0-1,.1-2,.6-2.8h-4.3c.5.9.7,1.9.6,2.8v12c0,1-.1,2-.6,2.8h4.3c-.5-.9-.7-1.9-.6-2.8v-12ZM96.6,28.2c-1,0-5.1,0-5.2,0v-6.5c2,0,8.7,0,9.7.5v-3c-.8.7-7.2.6-9.7.5v-5.2s9.1-.2,11.1.3c.4,0,.7.2,1,.4v-2.6h-15.8c.5.9.7,1.9.6,2.8v12c0,1-.1,2-.6,2.8h16.1l.6-2.8c-1.2.9-4.7.8-7.7.8M219.6,14c-2.4-1.1-5.1-1.7-7.7-1.6-3.2-.1-6.3.8-8.9,2.6-2,1.4-3.2,3.8-3.2,6.2,0,2.4,1.2,4.7,3.1,6.3,4.9,3.6,11.5,3.9,16.8.9v-7.2h-3.8c.5.7.7,1.6.6,2.4v4c-1.4.7-2.9,1-4.5.9-3.1,0-5.4-.9-6.9-2.5-1.3-1.2-2-3-2-4.8,0-1.8.8-3.5,2.1-4.6,1.9-1.6,4.3-2.5,6.8-2.3,2.3,0,4.6.5,6.6,1.7.4.2.7.5,1.1.8v-2.8ZM114.1,23.5h7.6l-3.7-7.5-3.9,7.5ZM119.7,12.6l8.6,15.8c.4.7.9,1.3,1.6,1.8h-5.4c.3-.6.3-1.4-.1-2l-1.6-3h-9.5l-1.7,3.3c-.3.5-.3,1.1,0,1.6h-3.7c.5-.4.9-.9,1.3-1.5l8.6-16h2.1Z"/>
      <path class="cls-3" d="M189.1,57.8c-1.3,1-4.7.8-7.7.8h-3.1v-12.8c0-1,.1-2,.6-2.8h-4.4c.5.9.6,1.9.6,2.8v12c0,1-.1,2-.6,2.8h14l.6-2.8ZM201.5,42.8c-4.2,0-7.8,1.1-8.1,4.4-.1.9.2,1.9.7,2.6,2.3,2.7,8.2,2.9,10.6,4.7.7.4,1,1.2,1,2-.2,2-2.7,2.5-5.9,2.5-4.2,0-6.3-1.7-6.9-2.3,0,0,0,2.8,0,2.8,2.2.8,4.5,1.2,6.8,1.3,4.7.1,8.9-1.1,9.2-4.9.1-1-.2-2-.8-2.8-1.4-1.7-4.2-2.3-6.9-3.2s-4.7-1.2-4.7-3c0-1.5,2.5-2.2,4.7-2.1,1.7,0,3.5.3,5.1.9.7.2,1.3.6,1.8,1.1v-2.8c-2.2-.7-4.5-1.1-6.8-1.2M104,51.6c-.1,2.2.8,4.4,2.6,5.8,1.4,1.1,3.2,1.6,5,1.5,1.8.2,3.7-.4,5.1-1.6,1.7-1.5,2.6-3.6,2.6-5.8.2-2.3-.9-4.4-2.7-5.7-3-1.8-6.8-1.8-9.8,0-1.8,1.4-2.8,3.5-2.7,5.8M111.6,42.7c3.6,0,6.9,1.2,8.8,3.2,1.4,1.6,2.2,3.7,2.2,5.8,0,2-.8,4-2.2,5.6-2.2,2.5-5.5,3.9-8.8,3.7-3.4.2-6.6-1.2-8.9-3.7-1.3-1.6-2.1-3.6-2.1-5.6,0-2.2.9-4.2,2.4-5.7,2.3-2.2,5.3-3.3,8.5-3.2M92.8,45.8c0-1,.1-2,.6-2.8h-4.4c.5.9.7,1.9.6,2.8v4.4h-11.1v-4.4c0-1,.1-2,.6-2.8h-4.4c.5.9.6,1.9.6,2.8v12c0,1-.2,2-.6,2.8h4.3c-.5-.9-.7-1.9-.6-2.8v-5.7h11.1v5.6c0,1-.1,2-.6,2.8h4.3c-.5-.9-.7-1.9-.6-2.8v-12ZM159.1,58.6c-1,0-5.1,0-5.2,0v-6.5c2,0,8.7,0,9.7.5v-3c-.8.7-7.2.6-9.7.5v-5.2s9.1-.2,11.1.3c.4,0,.7.2,1,.4v-2.6h-15.8c.5.9.6,1.9.6,2.8v12c0,1-.1,2-.6,2.8h16.1l.6-2.8c-1.2.9-4.7.8-7.7.8M136.9,44.8h3.8c1.5,0,2.6,0,3.1.7v-2.5h-17v2.6c.5-.6,1.8-.7,3.1-.7h3.8v12.9c0,1-.2,2-.6,2.8h4.4c-.5-.9-.6-1.9-.6-2.8v-12.9Z"/>
      <g class="cls-2">
        <path class="cls-3" d="M215.2,44.8h.6c.2,0,.4,0,.6,0,0,0,.2,0,.2.2,0,0,0,.2,0,.3,0,.2,0,.3-.2.4-.2.1-.4.2-.7.2h-.7v-1.1ZM215.2,47.9v-1.5h.3c.2,0,.3,0,.5.1.2.2.5.5.6.8l.3.6h.7l-.4-.7c-.1-.3-.3-.5-.5-.7,0,0-.2-.1-.3-.2.3,0,.5-.1.7-.3.2-.2.3-.4.3-.7,0-.2,0-.4-.2-.5-.1-.2-.3-.3-.4-.3-.3,0-.6-.1-.9,0h-1.2v3.5h.6ZM217.5,43.7c.4.2.8.6,1,1,.2.4.4.9.4,1.4,0,.5-.1.9-.4,1.4-.2.4-.6.8-1,1-.8.5-1.9.5-2.7,0-.4-.2-.8-.6-1-1-.5-.8-.5-1.9,0-2.7.2-.4.6-.8,1-1,.4-.2.9-.4,1.3-.4.5,0,.9.1,1.4.4M214.4,43.2c-.5.3-.9.7-1.2,1.2-.6,1-.6,2.3,0,3.3.3.5.7.9,1.2,1.2,1,.6,2.3.6,3.3,0,.6-.3,1-.7,1.3-1.2.6-1,.6-2.3,0-3.3-.3-.5-.7-.9-1.2-1.2-1-.6-2.2-.6-3.2,0"/>
      </g>
    </g>
  </g>
</svg>