<?xml version="1.0" encoding="UTF-8"?><svg id="b" xmlns="http://www.w3.org/2000/svg" width="327.68" height="100.22" viewBox="0 0 327.68 100.22"><g id="c"><path d="M240.93,79.25c-.2.36-.32.77-.34,1.18-.05.38.1.75.39,1,.84-.2,1.65-.54,2.38-1,.05-.39.12-.78.21-1.16l-2.64-.02ZM240.03,79.25h-2.6c.16.15.36.25.57.29.62.14,1.27.14,1.89,0,.06-.11.1-.22.14-.34M69.03,80.9c0,.42-.67,1.17-.67,1.6s.3.92,1.18.92c1.53,0,1.83-2.43,3.26-3.53.11.29.61.59.61,1s-.34.42-.34.84.38.66.77.84c.88-.86,1.89-1,2.54-1.65.33.04.67.06,1,.07.36-.28.47-.7.85-.91s1,0,1.35-.11c.17-.34.5-.56.88-.59.42,0,.42.34.84.34.4-.11.77-.29,1.1-.53h-13.46c-.14.3-.23.62-.28.94,0,.42.34.33.34.75M11.57,90.41c0-.44-.74-2.1-1.76-2.1-.42,0-.69.38-1,.45-.5.08-1.08-.06-1.37.11-.79.47-1.52,1.04-2.16,1.69-.36.36-.4,1-.69,1.41-.35.21-.75.07-1,.26-.91.73-1.66,1.64-2.2,2.67-.17.3,0,.7,0,.85-.44,1.2-1.39,3.05-1.39,3.47s0,1,.79,1c.7-.69,1.44-1.17,2-1.76.25-.27.84-2.26,1.7-2.27h2.2c.73-.61,1.4-1.3,2-2.05.34-.59.4-1.35.74-2.1-.12-.01-.24-.06-.33-.14.15-.09.31-.09.42-.24.11.14,0,.34.42.34s1.68-.79,1.68-1.59M32.95,82.27c0-.42-.52-.8-.9-1.34-.73.34-1.2,1.17-1.62,1.17s-.76-.67-1.17-.67c-.43-.02-.8.31-.83.74v1.93c.41,0,.74-.31,1.07-.31,3.07.17,2.4.1,3.27-.22-.4-1.18.18-1,.18-1.3M36.85,79.27h1.38c-.25-.07-.5-.12-.76-.14-.21.02-.43.07-.63.14M41.06,79.27h3.08l.21-.21c-.25-.67-.55-1.32-.9-1.94-.83.39-1.92.61-2.24,1.22-.08.31-.13.62-.15.94M51.22,79.28c0,.09,0,.17,0,.26,0,.42-.34,1.34-.4,2-.13.15-.3.25-.5.28-.81-.82-.31-1.85-1.54-1.85-.42,0-.71.51-1,.67-.32-.34-.79-1-1.14-1.37h0c-.06-.05-.12-.1-.19-.14l-.2.14h0c-.56.52-1.1,1.52-1.64,1.52s-.5-.17-.6-.14v-1.28l.14-.14h-3.08c-.04.3-.22.55-.49.68-.66-.22-1.64-.53-2.35-.7h-1.38c-.42.16-.92.41-1.38.54.11.28,2.34,2.07,2.34,2.72,0,.42,0,.27-.12.42-.62-.05-1.23-.01-1.84.11-.4.15-.63.59-1,.74-1.02.42-1.98.96-2.86,1.61-.05.81,0,2.14-1.11,2.15-.32-.68-.32-1.48,0-2.16h-1.24c-.42,0-1.36.82-1.78.82-.43,0-.86-.15-1.18-.44.15-.31.18-.66.11-1-.03-.31-.1-.61-.21-.9h-1.13c-.84.34-1.6.84-2.26,1.46-.59.47-1.52,0-1.88,1.15.28.48.62.93,1,1.33-.14.11-.34.33-.3.44-.37-.1-.73-.23-1.08-.4-.45-.45-.97-.82-1.54-1.09-.65-.19-1.32-.32-2-.38-1.82.36-3.61.83-5.37,1.41.36.42.35.91.72,1.44h2.87c.42,0,.61.26.61.68-.16.71-.43,1.38-.8,2-1.05-.13-2.12-.09-3.16.11-.42.65-.72,1.36-.9,2.11h.59c1-.32,1.34.75,1.69,1.19.06-.25.06-.5.48-.5s1.31.23,1.73.23.65-.17.86-.13c.52-.67,1.09-1.3,1.71-1.87.72-.47,1.49-.88,2.28-1.21.45.8,1.3,1.48,1.86,2.27.25.08.51.11.77.08.52-.02,1.03-.13,1.52-.31.08-.48-.32-1.65.86-1.65.24-.01.47.12.57.34-.14-.52.76-1.09,1.18-1.42.4-.28.85-.48,1.33-.59.31.39.52.85.61,1.34,0,.42-.34.67-.34,1.09s.2.41.2.41h.87c.69-.22,1.33-.56,1.91-1,.28-.22.42-.56.38-.91-.21-.67-.55-1.29-1-1.83.47-.28,1.09-.94,1.51-.94s.72.32,1.12.5c.22-.38.19-.68.35-.8.49-.21,1-.7,1.39-.7s.42.17.52.13c-.18.32.87,2.56,1.83,2.56.42,0,.28-.07.28-.07,1.06-.5.59-1.49.76-1.82.34-.64.82-1.21,1.4-1.64.83.5,1.72.89,2.64,1.17.42,0,.67-.67,1.09-.67,1.53,0,2,2.85,3.44,2.85.31,0,.5-.64,1.74,0v-1.18c-1-1-2.49-2.4-2.49-2.82,0-.1.4-1.09,1.18-1.09.42,0,2.52-.34,2.94-.34.61,0,2.14,3.65,3.73,4,.56-1.32,1.67-.57,2.39-1v-2.2c0-.42-.5-.61-.5-1s.33-1.17.37-1.64c.45-.48,1-.37,1.45-.7s.64-.93,1.08-1.11c.06.64.23,1.26.52,1.83.94,1.05,2.02,1.97,3.21,2.72,1.18-.84,2.3-1.75,3.37-2.73.07-.87-.14-1.71-.05-2.38.1-.46.28-.89.55-1.28h0c.35-.52.83-1,1.3-1,.14.15.45.26.45.68,0,.11-.02.21-.06.31h13.42c.55-.35,1.18-.78,1.64-1,.31-.24.57-.55.74-.91.14,0,.2-.19.62-.19s.84.33,1.26.33c2.64,0,0-2.4,2.26-3.69.46.48.79,1,1.15,1.33h2.09c.45-1,1.79-1.13,2.13-1.24.59-.8,1.42-1.3,2.06-2.07.95-.17,1.87-.51,2.7-1,.35-.46.34-.95.65-1.23.35-.02.69-.1,1-.25,0-.38.35-.88.35-1.3s-.34-.25-.34-.67,1-1.34,1.43-1.34,1.63,1.33,2.35,1.84c.82-.47,1.09-1.85,1.4-2.16,1.46-.96,2.84-2.04,4.13-3.21.23.38.62.63,1.06.67.75-.97,1.13-2.17,1.09-3.4.44-.3,1-.37,1.22-.54.34-.29.7-.62,1.06-1h0c.66-.63,1.3-1.28,1.81-1.81.49.3.3.51.83.51s.57,0,.68-.21c.36-.67.83-1.27,1.39-1.79.49-.4,1.13-.52,1.47-1.07.64-.79,1.2-1.64,1.69-2.53.16-.79.36-1.57.6-2.34.33-.59.93-.47,1.3-.68-.33-1.73,1-3.39,1-5.08,0-.42-.84-4.28-.84-4.7s.34-.76.34-1.17c-.09-.65-.37-1.26-.8-1.75.53-4-4.57-7.22-4.57-8.41,0-.42.16-.62.09-.81-.46-.35-1.21-.75-1.63-1.09s-.77-1.12-1.36-1.42-1.06-.27-1.33-.44c-.61-.46-1.16-.99-1.65-1.58v-4.1c.82-.77,1.48-3,1.73-4.21.11-.54.79-1,.9-1.33.19-.5.21-1.23.44-1.67.59-1.07,2.68-3.31,3.49-3.31.42,0,1.51-.17,1.93-.17s1.68.5,2.1.5,1-.51,1.65-.81c.42-.21,1.07.15,1.35-.12,1.14-1.09,2.15-2.32,3-3.65.2-.46.28-.97.24-1.47-.14-.58-.45-1.11-.9-1.51-.39.36-.66.67-.8.68-.14-.15-.48-.32-.7-.51-.56.35-.93,1.17-1.35,1.17s-.5-.33-.92-.33-3.61,2-4,2c-.84,0-2.63-.41-2.9-1.67-.57.25-1.1.59-1.57,1-.63.76-1.67,2-2.53,1.66-.21.73-.27,1.61-.44,2.24s-.77.79-.9,1.21c-.52,1.6-1,3.28-1.51,4.83-.15.46,0,1.2-.11,1.68-.45,1.19-.82,2.4-1.12,3.63,0,.77.07,1.54.21,2.29.15.54.67,1,.74,1.34.08.5-.23,1.06-.06,1.53s.69.82.73,1.16c.05.63.14,1.25.28,1.86.18.37.42.71.71,1,.31.08.61.21.88.37.18.66.58,1.24,1.14,1.64.51.19,1,.44,1.46.73.52.44.76,1.11,1.18,1.45s1.09.11,1.51.44c1.12.87,2.01,1.99,2.6,3.28.48,1-.26,2.45.62,3.54.21.25.44.2.44.62s-.63.93-1,1.13c.02.8-.07,1.59-.28,2.36-.62,1.3-1.49,2.46-2.56,3.41-.32-.09-.67-.11-1-.06-1,1.15-2.23,3.48-2.65,3.48s-.34-.33-.76-.33-1.34,1.51-1.76,1.51-.34-.34-.76-.34-2.35,1.18-2.77,1.18-.11-.34-.52-.32h-.71c0,.24-.19.24-.19.66s.67,1.17.67,1.59c0,.38-.16.75-.45,1-.67.12-2.82,1.4-3.15,1.4s-.67-.5-1.05-.49c-.25.32-.47.65-.67,1-.17.46,0,1-.11,1.35-.2.31-.48.57-.81.74h0c-.23.15-.48.28-.74.39h-2.14c-.42,0-.38-.16-.55-.12-.52.3-1.14,1.29-1.56,1.29s-1.58-.67-2.47-.83c-.21.37-.6.85-.83,1.2s-.54,2-1.4,2c-.42,0-1.18-.67-1.6-.67s-1.35.17-2,.22c-.27.31-.51.65-.72,1-.29,0-.46-.35-.88-.35-1.3,0-3.46,3.35-3.95,3.86-.78-.65-1.51-2-1.93-2s-.82.71-1.13,1.13c-.31,0-.81-.12-1.17-.07-1.07.96-2.24,1.8-3.49,2.51-.52-.72-.37-1-1.11-1-.76.02-1.36.66-1.34,1.42,0,0,0,0,0,.01,0,.42.5,1.18.5,1.6-.14.55-.42,1.06-.81,1.47-.32.22-.61,0-1,.08-.57.11-1.16.63-1.58.63s-.19-.14-.34-.27c.31-1,1.35-1.6,1.35-2.59,0-.42-.17-.42-.21-.66-.77.33-3.32,1.25-3.32,2.59,0,.42,1.34,2,1.34,2.43s-.17.42-.13.52c-.42-.25-.87-.43-1.35-.53-.42,0-.59.5-1,.5-.66-.22-1.13-.81-1.18-1.51,0-.45.77-1.51-.64-1.83-.04.23-.2.41-.42.49-.24-.28-.57-.45-.93-.49-.19,1.65-2,2-3.55,2-.42,0-1-1-1.56-1.67h-.76c-.14.62-.43,1.2-.84,1.68-.4.31-1.23.4-1.68.71-.92.71-1.93,1.29-3,1.73-.63.21-1.33-.06-1.83,0-.73.15-1.38.53-1.86,1.1-.34.42-.22,1.2-.38,1.78.39.1.74.32,1,.63.82.19,1.82-.27,2,.72M144.64,38.31c-.46.05-.63-.28-1.47-.28-2.35,0-.67,3.69-4,3.69-1.81,0-2.18-1.18-2.18-2.52,0-3.1,2.1-3.12,2.45-7.88,2.35,1.48,5,4,5.23,7M169.55,30.21c-3.17,0-2.79,2.69-5.06,4.72-.27.25-.39.87-.55,1.19-.1.11-.25.16-.4.14-1.31-1.66-2.64-3.32-4-4.81-.45-.33-1.01-.47-1.57-.41-.42,0-1.35.34-2.06.39-1,1.32-2.38,2.4-3.35,3.85l-1.18,1.85c-.1.15-.87,2.48-1.73,2.48-.42,0-.25-.33-.67-.33s-.17.33-.59.33c-1,0-.48-3-.65-3.79-.44-2-2.33-3.63-3.82-5.2-.25-.27-.7-.16-.78-.36-.2-.53-.45-1.03-.75-1.51-.47-.02-.93-.17-1.33-.43-.47-.43-1.01-.77-1.6-1-.17.52-.39,1.03-.66,1.51-.47-.19-.97-.3-1.48-.34-.48,0-1.25-.09-1.55.73-.48,1.35-.83,2.73-1.06,4.14,0,.42.34,1.51.34,1.93s-.34,1.85-.34,2.26c-.01,1.61.11,3.22.38,4.81.15.65,1,1.21,1.42,1.71.06.06,1.45,2.72,2.31,2.72.58-.03,1.15-.17,1.67-.42.41-.45.71-.93,1-1.05s.69.12,1,.06c.88-.21,1.9-2,2.34-2.83.31-.57-.42-1.45.47-1.81.29.47.1,1.2.33,1.64.54,1.16,1.34,2.19,2.33,3,.25.19.91-.06,1.18.11.57.34,1,1,1.59,1.14,1.32-2.58,4.1-4.53,3.89-7.07,1.15,0,1.51-2.49,3.21-2.49.47.01.92.18,1.29.47.48,1.19.87,2.41,1.16,3.66.17.94,1.22,3.93,2.5,3.93,1.55,0,2.21-3.94,2.29-4.07.92-1.34,1.6-2.61,2.42-4,.21-.36-.39-1.31.49-1.81.82.6,1.71,2,1.48,2.56.32.27.84.39.9.73.08.5,0,1.17.1,1.68s.51.67.57,1c.09.5-.14,1-.06,1.51s.68.94.9,1.53c.36.93,2.05,5.93,3.59,5.93.42,0,.94-.5,1.4-.58.46-.44.78-1,.94-1.61-.55-1.72-1.25-3.39-2.08-5-.17-.36-.83-.73-.9-1.15-.25-1.49-.46-3.23-.78-4.71-.19-.92-1.3-1.82-1.4-2.68-.25-2.12-1.11-4.27-3.15-4.27M194.25,32.46c0-.42-.34-.67-.34-1.09.32-1.13.32-2.34,0-3.47-.8-2.68-1.72-4.78-2.42-7.2-.46-.4-1.11-.45-1.4-1s-.35-1.25-.74-1.5c-1.7-1.09-2.38-2.18-3.77-3.36-.49.02-.98-.07-1.43-.27-.36-.21-.67-.51-.86-.57-.78-.17-1.59-.21-2.38-.11-.5,0-.89-.41-1.2-.56-1.71-.71-3.5-1.17-5.34-1.39-.42,0-.34.33-.76.33s-.25-.33-.67-.33-.42.33-.84.33-.87-.82-1.22-1.17h-.58c-.38.59-.71,1.21-1,1.85-.33-.1-.67-.1-1,0,.21.45.49.87.84,1.23v2.51c0,.42.87,1.39,1.26,1.67.37.05.75.09,1.12.1.29.46.51.95.66,1.47h.67c.36-.35.8-.89,1.18-1,.65-.1,1.81-.54,2.23-.54s.76.84,1.18.84.25-.34.67-.34.52.46.89.6c.51.11,1.02.15,1.54.11,1.49.08,2.94,2.53,3.82,3.07,1.16.7,2.11,1.7,2.76,2.88.8,1.89,1.44,3.84,1.9,5.84-.07.79-.26,1.57-.56,2.31-.19.38-.61.6-.74,1-.21.63.06,1.39-.11,2-.31,1.2-1.11,2.35-1.51,3.51-.1.16-.11.29-.53.29s-.34-.17-.43-.14v-1.14c0-.42.51-2.2.51-2.62s-.55-4.7-2.35-4.7c-.42,0-.42.17-.65.19,0,.46-.02.92-.08,1.38-.24.84-1,1.68-1.24,2.35-.42,1.3-.46,2.73-.78,4-.24.69-.45,1.4-.61,2.12,0,.42.15,1.29.34,3.11.32,2.74,2.19,5.05,4.8,5.94.55-.52.57-1.14.93-1.53.84-.74,1.76-1.38,2.74-1.9.94-.7,1.69-1.61,2.21-2.66.29-.77.38-1.88.61-2.69.08-.34.46-.44.46-.86-.13-1.11-.13-2.23,0-3.34.23-.9,1.31-1.75,1.73-2.67.31-.93.45-1.91.41-2.89M213.48,41.36c.21-1.39.26-2.8.17-4.21-.12-.78-.37-1.53-.74-2.22-.19-.38-.77-.72-.77-1.14s.14-.72.1-.87c-.15-.31-.34-.6-.57-.85-.02-.23-.06-.45-.11-.67-.15-.2-1.61-1.56-2-1.55h-1.21c-.24.74-.42,1.49-.54,2.26,0,2.48,2.52,2.35,2.52,6,.04.81-.12,1.62-.45,2.36-.74-.08-1.49.06-2.15.39-.4.27-1.36,1.45-2.26,1.45-.21,0-2.18-1.36-2.18-2.29v-2.14c0-.42.27-.33.27-.33.07-.69.24-1.79.24-2.21s-.76-1.35-1-1.88c-.1-.29.13-.85.06-1.16-.12-.55-.81-1.7-1.58-1.56-.36.7-.27,1.44-.58,1.86-.44.61-1.47,1.58-1.47,2.15s.34,1.59.34,2-.34,1.26-.34,1.68c.68,2.68,1.56,5.31,2.62,7.86.4.58.91,1.08,1.49,1.48.59.53.82.34,1.7,1.08h2.08c1-1.2,1.87-2.54,2.69-3.48.81,0,1.64-.2,2.38-.24-.39-1.16,1.21-2.35,1.36-3.73M247.45,78.24v-1.24c0-.42-.34-.4-.45-.55-.09-.92-.3-1.82-.61-2.69-.21-.4-.48-.76-.82-1.06h-2.36c-.42,0-1.38-.5-1.84-.39-.42-.66-.99-1.2-1.67-1.58-.47-.19-1,0-1.51-.27-.16-.1-.49-.44-.68-.57-.4,0-.79-.05-1.18-.11-2.14-.69-3.22-2.12-4.86-3.58-.36-.05-.68.11-1-.1s-3-2.3-3.74-2.3c-.42,0-.08.33-.5.33s-1.45-1.48-2-2.18c-.39.18-.44.33-.85.33s-.56-.61-1-1.28c-.46-.22-1-.77-1.49-.86s-1,.13-1.46,0c.06-1-.6-1.4-1.11-1.92h0c-.36-.36-.56-.86-.55-1.37.16-.97.45-1.92.87-2.81.29-.59.93-.47,1.22-.65s1.29-2.5,1.77-2.5c1.78.34,3.53.86,5.22,1.53,1.18.51,3.22,2,3.64,2s1.1-.17,1.63-.24c.47-.32.79-.81.89-1.36,0-.63-2.34-3.84-2.89-4.22-.3-.21-.74-.11-1-.27-.56-.35-.97-.9-1.13-1.54,0-.42.67-1.51.67-1.93,0-1.28-.52-3.15,2.64-3.43.45-.57,2.56-2.4,2.56-3.2-.21-.98-.64-1.91-1.26-2.7-.36-.42-1.06-.45-1.4-1-.39-.78-.85-1.53-1.35-2.24-2.36-.28-1.66-1.39-2.64-1.39-.42,0-1.26.5-1.68.5-.64.02-1.29-.06-1.91-.22-.4-.13-.84-.65-1.18-.74-.97-.17-1.91-.42-2.83-.77-.93-.46-1.51-1.28-2.43-1.78l-.21,1.93c.39,1.5,0,3.12,1.59,4.55,1.06-.49,2.33.92,3.53,1.51.36-.06,2.11,0,2.11,1.24,0,.42-.17,1.08-.23,1.58,0,0-1.32,4.46-2.88,4.46-.54,0-3.57-1.68-3.86-1.68-1.12,0-1.26,1.89-1.26,2.77,0,.42,0,1.35.17,3.53,0,.33.5.56.5,1v3.57c0,.42-.86,1.1-1,1.64-.2,1.17-.33,2.35-.38,3.54v.72h0c-.01.8.12,1.59.38,2.34.56.93,1.23,1.78,2,2.54.36.48,2,1.37,1.8,2.18.43.03.83.19,1.16.47-.14.31-.18.66-.12,1,1.09,1.05,2.35,1.92,3.73,2.56.42,0,.17-.34.59-.34.54.04,1.06.16,1.56.37.86.38,1.71,2.54,3.18,3.35.59.31.83,1,1.2,1.25.56-.1,1.14,0,1.65.26.48.3.56,1.18.86,1.61s1.13.71,1.4,1.17c.38.63.81,1.24,1.27,1.81.36.07.7-.09,1-.06.16.14.31.31.48.45h2.6c.05-.22.11-.44.19-.65h.6c.14.15.28.26.29.4l-.17.25h2.64c.18-.7.49-1.46,1-1.46s.53.5.94.49h1.96Z" style="fill:#cabfa7;"/><path d="M322.18,64.48h.34c.02-.11.06-.22.12-.32.04-.09.12-.15.21-.16h.27l.23.09c.23.1.47.17.71.22.23.05.47.07.71.07.83.08,1.65-.24,2.22-.85.44-.5.68-1.14.69-1.8.02-.64-.21-1.26-.64-1.73-.27-.28-.58-.52-.92-.7l-.87-.47c-.5-.24-.97-.54-1.4-.88-.44-.5-.44-1.24,0-1.74.29-.21.65-.29,1-.21.55,0,1.07.25,1.41.69.39.48.67,1.04.81,1.64h.33v-2.78h-.35c-.02.11-.06.22-.12.32-.06.08-.16.13-.26.12-.23-.05-.46-.12-.68-.21-.4-.14-.81-.21-1.23-.21-.71-.05-1.41.25-1.86.8-.39.49-.61,1.1-.61,1.73-.02.52.15,1.04.46,1.46.44.5.97.9,1.57,1.19l.75.41c.34.16.65.37.93.61.24.25.36.58.35.92,0,.34-.12.66-.33.93-.28.32-.7.48-1.12.44-.54,0-1.06-.24-1.43-.64-.49-.58-.8-1.29-.9-2.05h-.34v3.12h-.05ZM307.67,64.3h6.81l.47-2.86h-.34c-.2.78-.64,1.47-1.24,2-.53.35-1.15.52-1.78.5-.27.02-.55-.02-.8-.14-.15-.14-.23-.34-.2-.55v-6c0-.5.08-.81.24-.94.31-.17.65-.24,1-.21v-.32h-4.11v.32c.24,0,.48.05.7.15.24.17.37.45.33.74v6.1c.04.3-.1.59-.35.75-.22.1-.45.15-.69.14v.32h-.04ZM300.21,64.3l.48-2.62h-.33c-.25.69-.68,1.3-1.26,1.75-.55.33-1.19.5-1.84.47-.27.03-.55-.02-.79-.14-.14-.14-.22-.34-.19-.54v-3.06c.5-.06,1.01.1,1.39.44.31.45.49.97.51,1.52h.3v-4.26h-.3c-.05.53-.24,1.03-.54,1.47-.38.31-.87.46-1.36.39v-2.91c-.02-.17.03-.35.15-.48.21-.1.45-.15.69-.12.7-.08,1.4.08,2,.45.43.46.7,1.04.76,1.67h.29v-2.54h-6.82v.32c.24,0,.48.05.7.15.24.16.37.45.34.74v6.1c.03.29-.09.57-.33.74-.22.11-.47.16-.72.15v.32h6.87ZM279.14,58.3h.34c0-.74.37-1.44,1-1.84.41-.2.86-.3,1.32-.29v6.64c.04.32-.04.65-.23.92-.26.19-.59.27-.91.23v.32h4.19v-.28c-.33.04-.66-.04-.94-.23-.19-.27-.27-.6-.23-.92v-6.66c.46-.01.91.09,1.32.29.6.42.98,1.1,1,1.84h.34v-2.53h-7.08l-.12,2.51ZM267.8,55.6c-1.14-.03-2.24.44-3,1.29-.79.9-1.21,2.06-1.16,3.26-.03,1.12.37,2.21,1.11,3.06,1.57,1.69,4.2,1.79,5.89.22.04-.03.07-.07.11-.1,1.6-1.87,1.6-4.63,0-6.5-.78-.82-1.87-1.27-3-1.23M267.75,64.14c-.89,0-1.5-.56-1.82-1.68-.35-1.55-.35-3.17,0-4.72.33-1.14.94-1.71,1.83-1.71.66.01,1.25.4,1.52,1,.42.94.61,1.97.56,3,.02.8-.07,1.6-.27,2.37-.33,1.12-.94,1.68-1.82,1.68M247.75,64.25h4v-.25c-.24,0-.47-.04-.69-.13-.25-.16-.39-.45-.36-.75v-2.93h2.8v2.91c.03.29-.09.57-.33.74-.22.11-.47.16-.72.15v.32h4v-.31c-.23,0-.46-.04-.67-.14-.25-.16-.39-.45-.35-.75v-6.11c-.04-.28.09-.56.32-.73.22-.1.46-.16.7-.16v-.32h-4v.32c.25,0,.5.05.73.15.23.17.35.46.31.74v2.62h-2.8v-2.62c-.03-.29.09-.57.33-.74.23-.1.47-.15.72-.15v-.32h-4v.32c.24.01.48.07.7.17.26.15.42.42.41.72v6.1c.03.29-.09.57-.33.74-.21.1-.44.16-.67.16l-.1.25ZM226.66,64.25h2.66v-.25c-.38.05-.76-.11-1-.42-.12-.26-.17-.54-.15-.82v-4.96h.08l5.17,6.74h.43v-7.43c-.04-.26.03-.53.19-.74.22-.15.48-.23.74-.26v-.32h-2.52v.32c.32-.01.64.11.87.33.17.27.25.59.22.91v3.7h-.06l-4-5.27h-2.49v.32c.13.02.25.07.35.15.08.07.31.33.66.76v6c.02.26-.05.52-.19.74-.23.2-.53.3-.84.27v.32l-.12-.09ZM215.51,55.6c-1.14-.03-2.24.44-3,1.29-.79.9-1.21,2.06-1.16,3.26-.03,1.12.37,2.21,1.11,3.06,1.57,1.69,4.2,1.79,5.89.22.04-.03.07-.07.11-.1,1.6-1.87,1.6-4.63,0-6.5-.78-.82-1.87-1.27-3-1.23M215.46,64.14c-.89,0-1.49-.56-1.82-1.68-.35-1.55-.35-3.17,0-4.72.33-1.14.94-1.71,1.83-1.71.66.01,1.25.4,1.52,1,.42.94.61,1.97.56,3,.02.8-.07,1.6-.26,2.37-.33,1.12-.93,1.68-1.82,1.68M200.07,64.25h4.11v-.25c-.29.02-.58-.04-.83-.18-.21-.18-.31-.44-.27-.71v-6.11c-.04-.29.09-.59.34-.75.24-.1.5-.14.76-.14v-.32h-4.11v.32c.25,0,.51.04.74.14.25.16.38.45.34.74v6.11c.03.3-.11.59-.36.75-.23.1-.47.14-.72.13v.27ZM185.87,58.25h.34c0-.74.37-1.44,1-1.84.41-.2.86-.3,1.32-.29v6.64c.04.32-.04.65-.23.92-.27.19-.6.27-.92.23v.32h4.19v-.23c-.33.04-.66-.04-.94-.23-.19-.27-.27-.6-.23-.92v-6.66c.46-.01.91.09,1.32.29.6.42.97,1.1,1,1.84h.34v-2.53h-7.08l-.11,2.46ZM171.7,64.25h2.4v-.25c-.2,0-.41-.02-.6-.08-.23-.08-.34-.21-.34-.39.02-.24.07-.48.15-.71l.34-1h2.64l.3.77c.07.17.12.31.16.43.05.15.08.3.09.45,0,.22-.06.36-.18.41-.24.07-.5.1-.75.1v.32h3.81v-.3c-.25.02-.49-.1-.62-.31-.26-.46-.48-.94-.66-1.44l-2.59-6.63h-.33l-2.67,6.89c-.13.37-.29.72-.48,1.06-.15.24-.4.39-.68.41v.32-.05ZM173.82,61.25l1.06-2.92h.1l1.13,2.92h-2.29ZM159.57,63.07v-6.2c-.02-.18.01-.36.09-.52.09-.14.29-.21.6-.21.95-.03,1.78.62,2,1.54.26.74.38,1.52.36,2.3.1,1.05-.13,2.1-.67,3-.42.51-1.06.81-1.72.79-.26,0-.42-.06-.5-.17-.1-.17-.14-.36-.14-.56M156.71,64.2h3.72c1.2.1,2.37-.34,3.21-1.2.68-.81,1.04-1.84,1-2.9.16-2.2-1.49-4.12-3.69-4.29-.22-.02-.45-.01-.67,0h-3.59v.32c.22,0,.44.06.65.15.23.15.36.41.33.68v6.22c.03.28-.1.55-.34.7-.2.09-.42.14-.64.14v.32l.02-.15ZM141.79,64.2h2.66v-.2c-.38.05-.76-.11-1-.42-.12-.26-.17-.54-.15-.82v-4.96h.08l5.17,6.74h.33v-7.43c-.04-.26.03-.53.19-.74.22-.15.48-.23.74-.26v-.32h-2.53v.32c.32-.01.64.11.87.33.17.27.25.59.22.91v3.7h-.06l-4-5.27h-2.46v.32c.13.01.25.07.35.15.08.07.31.33.67.76v6c.02.26-.05.52-.19.74-.23.19-.53.28-.83.25v.32l-.06-.12ZM126.79,55.68v.32c.28,0,.56.1.79.26.15.27.21.59.17.9v4.22c-.02.62.11,1.23.4,1.78.6.92,1.67,1.43,2.77,1.3.85.07,1.69-.25,2.27-.87.52-.72.78-1.59.72-2.48v-4c-.04-.27.03-.55.18-.78.22-.15.47-.25.74-.29v-.32h-2.58v.32c.33,0,.65.1.91.31.18.27.27.6.23.93v3.86c.03.57-.06,1.13-.26,1.66-.31.72-1.05,1.15-1.83,1.08-.62.05-1.21-.31-1.45-.88-.16-.48-.23-.98-.21-1.48v-4.26c-.04-.32.04-.65.23-.92.27-.17.59-.25.91-.23v-.32h-4v-.11ZM115.55,55.49c-1.14-.03-2.24.44-3,1.29-.79.9-1.21,2.06-1.16,3.26-.02,1.12.37,2.21,1.11,3.06,1.57,1.69,4.2,1.79,5.89.22.04-.03.07-.07.11-.1,1.6-1.87,1.6-4.63,0-6.5-.78-.82-1.87-1.27-3-1.23M115.5,64.03c-.89,0-1.5-.56-1.82-1.68-.35-1.55-.35-3.17,0-4.72.33-1.14.94-1.71,1.83-1.71.66,0,1.25.4,1.52,1,.42.94.61,1.97.56,3,.02.8-.07,1.6-.26,2.37-.33,1.12-.93,1.68-1.82,1.68M97.51,64.14h4.34v-.14c-.34.03-.68-.02-1-.14-.21-.1-.32-.35-.32-.74v-2.96c.49-.05.97.12,1.31.47.29.44.46.96.49,1.49h.3v-4.26h-.3c-.05.51-.22,1-.48,1.44-.34.34-.82.5-1.29.43v-2.92c-.02-.17.03-.34.14-.47.2-.11.43-.16.66-.13.67-.07,1.35.09,1.91.47.41.45.67,1.03.74,1.64h.29v-2.53h-6.66v.32c.25,0,.49.05.72.15.23.17.35.45.32.74v6.1c.03.29-.09.57-.33.74-.23.11-.47.16-.72.15v.32l-.12-.17ZM76.99,64.14h6.9l.31-3h-.31c-.3,1.2-.73,1.94-1.3,2.2-1.06.34-2.18.47-3.29.4l4.63-7.74v-.2h-6.24l-.25,2.6h.33c.14-.45.34-.89.59-1.29.29-.4.72-.68,1.2-.77l.48-.07h1.62l-4.59,7.83-.08.04ZM65.7,55.6c-1.14-.03-2.24.44-3,1.29-.79.9-1.21,2.06-1.16,3.26-.02,1.12.37,2.21,1.11,3.06,1.57,1.69,4.2,1.79,5.89.22.04-.03.07-.07.11-.1,1.6-1.87,1.6-4.63,0-6.5-.78-.82-1.87-1.27-3-1.23M65.65,64.14c-.89,0-1.5-.56-1.82-1.68-.35-1.55-.35-3.17,0-4.72.35-1.16.98-1.74,1.87-1.74.66.01,1.25.4,1.52,1,.42.94.61,1.97.56,3,.02.8-.07,1.6-.26,2.37-.33,1.12-.93,1.68-1.82,1.68M49.23,63.05v-6.2c-.02-.18.01-.36.09-.52.09-.14.29-.21.6-.21.95-.03,1.78.62,2,1.54.26.74.38,1.52.36,2.3.1,1.05-.13,2.1-.67,3-.42.51-1.06.81-1.72.79-.25,0-.42-.06-.5-.17-.09-.17-.14-.36-.14-.56M46.35,64.31h3.71c1.21.07,2.39-.41,3.2-1.31.68-.81,1.04-1.84,1-2.9.16-2.2-1.49-4.12-3.69-4.29-.22-.02-.45-.01-.67,0h-3.55v.32c.22,0,.44.06.65.15.23.15.36.41.33.68v6.22c.03.28-.1.55-.34.7-.2.09-.42.14-.64.14v.28ZM31.42,64.31h2.66v-.31c-.38.05-.76-.11-1-.42-.12-.26-.17-.54-.15-.82v-4.96h.08l5.17,6.74h.33v-7.43c-.04-.26.03-.53.19-.74.22-.15.48-.23.74-.26v-.32h-2.49v.32c.32-.01.64.11.87.33.17.27.25.59.22.91v3.7h-.06l-4-5.27h-2.53v.32c.13.02.24.07.34.15.08.07.31.33.67.76v6c.02.26-.05.52-.19.74-.23.2-.53.3-.84.27v.32-.03ZM16.49,64.31h2.36v-.31c-.2,0-.41-.02-.6-.08-.22-.08-.34-.21-.34-.39.02-.24.07-.48.16-.71l.33-1h2.64l.3.77c.06.17.12.31.16.43.05.15.08.3.09.45,0,.22-.06.36-.18.41-.24.07-.5.1-.75.1v.32h3.8v-.3c-.25.02-.49-.1-.62-.31-.26-.46-.48-.94-.66-1.44l-2.62-6.62h-.33l-2.61,6.9c-.12.37-.28.72-.47,1.06-.15.24-.41.39-.69.41v.32h.03ZM18.61,61.31l1.06-2.92h.1l1.13,2.92h-2.29ZM3.69,64.48h.34c.02-.11.06-.22.12-.32.06-.08.15-.12.25-.11h.28l.23.09c.23.1.47.17.71.22.23.05.47.07.71.07.83.08,1.65-.24,2.22-.85.44-.5.68-1.14.69-1.8.02-.64-.21-1.26-.64-1.73-.27-.28-.58-.52-.93-.7l-.87-.47c-.5-.24-.97-.53-1.4-.88-.44-.5-.44-1.24,0-1.74.24-.24.58-.37.92-.35.55,0,1.07.26,1.41.69.39.48.67,1.04.81,1.64h.31v-2.69h-.35c-.02.11-.06.22-.12.32-.06.08-.16.13-.26.12-.23-.05-.46-.12-.68-.21-.4-.14-.81-.21-1.23-.21-.71-.05-1.41.25-1.86.8-.39.49-.61,1.1-.61,1.73-.02.52.15,1.04.46,1.46.44.5.97.9,1.57,1.19l.75.41c.34.16.65.37.93.61.23.25.35.58.34.92,0,.34-.12.67-.33.93-.28.32-.7.48-1.12.44-.54,0-1.06-.24-1.43-.64-.49-.58-.8-1.29-.9-2.05h-.32v3.11Z" style="fill:#231f20;"/><path d="M201.65,78.39h2c1.48,0,2.12-1.07,2.12-2.4s-.64-2.4-2.12-2.4h-2v4.8ZM202.49,74.28h.83c1.32,0,1.6.75,1.6,1.71s-.28,1.72-1.6,1.72h-.83v-3.43ZM193.61,78.39h.8v-3.53h0l2.18,3.53h.89v-4.8h-.8v3.54h0l-2.19-3.54h-.89v4.8h.01ZM185.44,78.39h.87l.45-1.27h1.92l.45,1.27h.9l-1.85-4.8h-.89l-1.85,4.8ZM187.71,74.39h0l.72,2.06h-1.46l.74-2.06ZM178.98,78.39h3.28v-.72h-2.41v-4.08h-.84l-.03,4.8ZM171.09,78.39h.84v-2h1.24c.77,0,1,.39,1,1.27-.02.24.02.48.13.7h.9c-.21-.38-.3-.82-.26-1.26,0-.76-.42-1-.71-1h0c.51-.17.84-.67.79-1.21,0-.81-.54-1.3-1.59-1.3h-2.29v4.8h-.05ZM171.93,74.28h1.36c.44,0,.83.12.83.74s-.29.76-.82.76h-1.38v-1.5ZM163.7,78.39h3.5v-.72h-2.66v-1.41h2.42v-.69h-2.42v-1.25h2.61v-.73h-3.45v4.8ZM156.16,74.32h2.58l-2.79,3.39v.68h3.9v-.72h-2.86l2.8-3.44v-.64h-3.64v.73ZM148.7,74.32h1.52v4.07h.84v-4.07h1.53v-.73h-3.89v.73ZM144.13,78.39h.84v-4.8h-.84v4.8ZM135.42,78.39h.87l1-3.67h0l1,3.67h.85l1.32-4.8h-.85l-.89,3.67h0l-.94-3.67h-.93l-1,3.67h0l-.87-3.67h-.85l1.29,4.8ZM126.82,76.79c0,1.19.91,1.71,2,1.71s1.91-.43,1.91-1.5c0-.57-.38-1.08-.93-1.23l-1.38-.37c-.34-.09-.57-.28-.57-.62s.49-.63.88-.63c.58,0,1,.23,1,.85h.84c0-1-.84-1.53-1.84-1.53s-1.76.45-1.76,1.41c0,.62.45,1.14,1.06,1.22.66.18,1.1.27,1.43.4.25.08.41.33.39.59,0,.36-.27.73-1,.73s-1.22-.29-1.22-1l-.81-.03Z" style="fill:#231f20;"/></g></svg>