<?xml version="1.0" encoding="UTF-8"?><svg id="b" xmlns="http://www.w3.org/2000/svg" width="275.24" height="98.05" viewBox="0 0 275.24 98.05"><g id="c"><path d="M4.49,55.88v14.5h10.08c1.46,0,2.73-.38,2.92-.7v2.7H0c.42-.17.91-1.12.91-2.25v-14.25c0-1.12-.49-2.1-.91-2.25h5.36c-.39.15-.88,1.12-.88,2.25Z" style="fill:#0c0d0f;"/><path d="M36.11,55.63h-9.29v6.35h7.8c1.46,0,2.73-.38,2.93-.67v3.37c-.2-.33-1.46-.7-2.93-.7h-7.8v6.4h10.46c1.46,0,2.73-.38,2.93-.7v2.7h-17.88c.42-.15.91-1.12.91-2.25v-14.25c0-1.12-.49-2.1-.91-2.25h16.71v2.67c-.2-.3-1.46-.67-2.93-.67Z" style="fill:#0c0d0f;"/><path d="M68.06,72.37h-5.66c.32-.25.36-1.3-.16-2.37l-1.88-3.62h-9.65l-1.92,3.65c-.49,1.05-.46,2.1-.13,2.35h-4.62c.42-.05,1.3-.83,1.82-1.88l7.15-14.52c.49-1.08.42-2.1.07-2.35h4.94l8.22,16.87c.52,1.05,1.37,1.83,1.82,1.88ZM59.44,64.28l-3.9-7.85-3.96,7.85h7.87Z" style="fill:#0c0d0f;"/><path d="M92.92,63c0,6.27-5.49,9.37-11.9,9.37h-9c.42-.17.91-1.12.91-2.25v-14.25c0-1.12-.49-2.1-.91-2.25h9c6.4,0,11.9,3.07,11.9,9.37ZM81.02,70.37c4.52,0,8.29-2.47,8.29-7.37s-3.77-7.37-8.29-7.37h-4.52v14.75h4.52Z" style="fill:#0c0d0f;"/><path d="M112.71,55.63h-9.29v6.35h7.8c1.46,0,2.73-.38,2.93-.67v3.37c-.2-.33-1.46-.7-2.93-.7h-7.8v6.4h10.46c1.46,0,2.73-.38,2.93-.7v2.7h-17.88c.42-.15.91-1.12.91-2.25v-14.25c0-1.12-.49-2.1-.91-2.25h16.71v2.67c-.2-.3-1.46-.67-2.93-.67Z" style="fill:#0c0d0f;"/><path d="M141.76,59.85c0,3.32-2.44,5.27-5.69,5.87l5.33,5.12c.62.65,1.27,1.17,2.11,1.52h-3.87c-.88-.17-1.5-.62-2.05-1.25l-5.33-5.07h-5.04v4.07c0,1.12.49,2.1.88,2.25h-5.36c.42-.15.91-1.12.91-2.25v-14.25c0-1.12-.49-2.1-.91-2.25h10.37c4.78,0,8.65,1.95,8.65,6.22ZM132.86,64.05c2.73,0,5.27-1.45,5.27-4.2s-2.54-4.2-5.27-4.22h-5.62v8.42h5.62Z" style="fill:#0c0d0f;"/><path d="M148.04,70.8v-3.02c1.59,1.42,4.78,2.95,8.48,2.95,4.48,0,6.37-1.7,6.37-3.45,0-4.82-14.72-2.22-14.72-9.12,0-3.05,3.45-5.02,9.23-5.02,2.79,0,6.11.7,8.12,1.77v2.92c-1.53-1.42-4.39-2.7-7.67-2.7-3.9,0-5.75,1.33-5.75,2.75,0,4.6,14.76,2.02,14.76,9.12,0,3.4-3.67,5.72-10.01,5.72-2.89,0-6.7-.85-8.81-1.92Z" style="fill:#0c0d0f;"/><path d="M182.19,63c0-6.42,5.53-9.72,11.83-9.72,2.7,0,5.59.58,7.47,1.75v2.85c-1.79-1.65-4.58-2.6-7.47-2.6-4,0-8.19,2.55-8.19,7.7s4.19,7.75,8.19,7.75c3.09,0,5.69-.97,7.47-2.6v2.82c-1.88,1.17-4.78,1.77-7.44,1.77-6.34,0-11.86-3.32-11.86-9.72Z" style="fill:#0c0d0f;"/><path d="M211.74,55.88v14.5h10.08c1.46,0,2.73-.38,2.92-.7v2.7h-17.49c.42-.17.91-1.12.91-2.25v-14.25c0-1.12-.49-2.1-.91-2.25h5.36c-.39.15-.88,1.12-.88,2.25Z" style="fill:#0c0d0f;"/><path d="M248.01,55.88v9.12c0,5.57-4.49,7.72-9.46,7.72s-9.46-2.15-9.46-7.72v-9.12c0-1.12-.45-2.1-.88-2.25h5.36c-.39.15-.91,1.12-.91,2.25v9.22c0,3.95,3.06,5.62,6.31,5.62s6.31-1.67,6.31-5.62v-9.22c0-1.12-.52-2.1-.91-2.25h4.52c-.42.15-.88,1.12-.88,2.25Z" style="fill:#0c0d0f;"/><path d="M273.45,58.43c0,1.8-1.3,3.1-3.25,3.92,2.86.72,5.04,2.35,5.04,4.82,0,3.5-3.9,5.2-8.65,5.2h-11.77c.42-.15.91-1.12.91-2.25v-14.25c0-1.12-.49-2.1-.91-2.25h9.98c4.75,0,8.65,1.55,8.65,4.8ZM264.65,61.6c2.73,0,5.17-1.02,5.17-2.97s-2.44-2.97-5.17-3h-5.33v5.97h5.33ZM266.3,70.37c2.73-.03,5.3-1.17,5.3-3.4s-2.57-3.37-5.3-3.37h-6.99v6.77h6.99Z" style="fill:#0c0d0f;"/><path d="M7.07,91.21h-1.83v5.8c0,.45.19.84.35.9h-2.15c.17-.06.36-.45.36-.9v-5.8h-1.85c-.64,0-1.24.15-1.33.27v-1.07h7.76v1.07c-.09-.12-.69-.27-1.33-.27Z" style="fill:#0c0d0f;"/><path d="M18.2,91.31v5.7c0,.45.19.84.36.9h-2.15c.16-.06.35-.45.35-.9v-2.48h-4.84v2.48c0,.45.2.84.35.9h-2.15c.17-.06.36-.45.36-.9v-5.7c0-.45-.2-.84-.36-.9h2.15c-.16.06-.35.45-.35.9v2.42h4.84v-2.42c0-.45-.19-.84-.35-.9h2.15c-.17.06-.36.45-.36.9Z" style="fill:#0c0d0f;"/><path d="M26.31,91.21h-3.72v2.54h3.12c.58,0,1.09-.15,1.17-.27v1.35c-.08-.13-.58-.28-1.17-.28h-3.12v2.56h4.19c.58,0,1.09-.15,1.17-.28v1.08h-7.15c.17-.06.36-.45.36-.9v-5.7c0-.45-.2-.84-.36-.9h6.68v1.07c-.08-.12-.58-.27-1.17-.27Z" style="fill:#0c0d0f;"/><path d="M35.56,91.31v5.8h4.03c.58,0,1.09-.15,1.17-.28v1.08h-6.99c.17-.07.36-.45.36-.9v-5.7c0-.45-.2-.84-.36-.9h2.15c-.16.06-.35.45-.35.9Z" style="fill:#0c0d0f;"/><path d="M48,91.21h-3.72v2.54h3.12c.58,0,1.09-.15,1.17-.27v1.35c-.08-.13-.58-.28-1.17-.28h-3.12v2.56h4.19c.58,0,1.09-.15,1.17-.28v1.08h-7.15c.17-.06.36-.45.36-.9v-5.7c0-.45-.2-.84-.36-.9h6.68v1.07c-.08-.12-.58-.27-1.17-.27Z" style="fill:#0c0d0f;"/><path d="M60.58,97.91h-2.26c.13-.1.14-.52-.06-.95l-.75-1.45h-3.86l-.77,1.46c-.19.42-.18.84-.05.94h-1.85c.17-.02.52-.33.73-.75l2.86-5.81c.2-.43.17-.84.03-.94h1.98l3.29,6.75c.21.42.55.73.73.75ZM57.13,94.67l-1.56-3.14-1.59,3.14h3.15Z" style="fill:#0c0d0f;"/><path d="M70.31,94.16c0,2.51-2.2,3.75-4.76,3.75h-3.6c.17-.07.36-.45.36-.9v-5.7c0-.45-.2-.84-.36-.9h3.6c2.56,0,4.76,1.23,4.76,3.75ZM65.56,97.11c1.81,0,3.31-.99,3.31-2.95s-1.51-2.95-3.31-2.95h-1.81v5.9h1.81Z" style="fill:#0c0d0f;"/><path d="M74.3,91.31v5.7c0,.45.2.84.35.9h-2.15c.17-.06.36-.45.36-.9v-5.7c0-.45-.2-.84-.36-.9h2.15c-.16.06-.35.45-.35.9Z" style="fill:#0c0d0f;"/><path d="M85.05,91.31v6.6h-1.44l-5.27-5.79v4.9c0,.44.2.83.35.89h-1.81c.17-.06.36-.45.36-.9v-5.7c0-.41-.18-.8-.36-.9h1.66l5.41,5.97v-5.07c0-.45-.2-.84-.35-.9h1.79c-.16.06-.35.45-.35.9Z" style="fill:#0c0d0f;"/><path d="M92.46,91.01c-1.75,0-3.41,1-3.41,3.07s1.64,3.03,3.3,3.03c.75,0,1.5-.18,1.95-.5v-1.83c0-.29-.21-.63-.36-.68h2.14c-.17.05-.36.39-.36.68v2.25c-.62.49-1.87.96-3.26.96-2.59,0-4.86-1.33-4.86-3.91s2.24-3.87,4.8-3.87c1.08,0,2.25.23,3.02.7v1.13c-.73-.65-1.86-1.03-2.95-1.03Z" style="fill:#0c0d0f;"/><path d="M109.98,91.31v5.7c0,.45.19.84.36.9h-2.15c.16-.06.35-.45.35-.9v-2.48h-4.84v2.48c0,.45.2.84.35.9h-2.15c.17-.06.36-.45.36-.9v-5.7c0-.45-.2-.84-.36-.9h2.15c-.16.06-.35.45-.35.9v2.42h4.84v-2.42c0-.45-.19-.84-.35-.9h2.15c-.17.06-.36.45-.36.9Z" style="fill:#0c0d0f;"/><path d="M122.05,94.15c0,2.6-2.21,3.89-4.76,3.89s-4.76-1.29-4.76-3.89,2.2-3.89,4.76-3.89,4.76,1.29,4.76,3.89ZM117.29,97.23c1.79,0,3.3-1.05,3.3-3.08s-1.51-3.09-3.3-3.09-3.3,1.05-3.3,3.09,1.51,3.08,3.3,3.08Z" style="fill:#0c0d0f;"/><path d="M129.68,91.21h-1.83v5.8c0,.45.19.84.35.9h-2.14c.17-.06.36-.45.36-.9v-5.8h-1.85c-.64,0-1.24.15-1.33.27v-1.07h7.76v1.07c-.09-.12-.69-.27-1.33-.27Z" style="fill:#0c0d0f;"/><path d="M138.26,91.21h-3.72v2.54h3.12c.58,0,1.09-.15,1.17-.27v1.35c-.08-.13-.58-.28-1.17-.28h-3.12v2.56h4.19c.58,0,1.09-.15,1.17-.28v1.08h-7.15c.17-.06.36-.45.36-.9v-5.7c0-.45-.2-.84-.36-.9h6.68v1.07c-.08-.12-.58-.27-1.17-.27Z" style="fill:#0c0d0f;"/><path d="M143.87,91.31v5.8h4.03c.58,0,1.09-.15,1.17-.28v1.08h-6.99c.17-.07.36-.45.36-.9v-5.7c0-.45-.2-.84-.36-.9h2.15c-.16.06-.35.45-.35.9Z" style="fill:#0c0d0f;"/><path d="M150.67,97.28v-1.21c.64.57,1.91,1.18,3.39,1.18,1.79,0,2.55-.68,2.55-1.38,0-1.93-5.89-.89-5.89-3.65,0-1.22,1.38-2.01,3.69-2.01,1.12,0,2.44.28,3.25.71v1.17c-.61-.57-1.75-1.08-3.07-1.08-1.56,0-2.3.53-2.3,1.1,0,1.84,5.9.81,5.9,3.65,0,1.36-1.47,2.29-4,2.29-1.16,0-2.68-.34-3.52-.77Z" style="fill:#0c0d0f;"/><path d="M173.43,94.15c0,2.6-2.21,3.89-4.76,3.89s-4.76-1.29-4.76-3.89,2.2-3.89,4.76-3.89,4.76,1.29,4.76,3.89ZM168.67,97.23c1.79,0,3.3-1.05,3.3-3.08s-1.51-3.09-3.3-3.09-3.3,1.05-3.3,3.09,1.51,3.08,3.3,3.08Z" style="fill:#0c0d0f;"/><path d="M180.79,91.21h-3.38v2.54h2.78c.58,0,1.09-.15,1.17-.27v1.35c-.08-.13-.58-.28-1.17-.28h-2.78v2.46c0,.45.2.84.35.9h-2.15c.17-.06.36-.45.36-.9v-5.7c0-.45-.2-.84-.36-.9h6.34v1.07c-.08-.12-.58-.27-1.17-.27Z" style="fill:#0c0d0f;"/><path d="M193.71,91.21h-1.83v5.8c0,.45.19.84.35.9h-2.14c.17-.06.36-.45.36-.9v-5.8h-1.85c-.64,0-1.24.15-1.33.27v-1.07h7.76v1.07c-.09-.12-.69-.27-1.33-.27Z" style="fill:#0c0d0f;"/><path d="M204.84,91.31v5.7c0,.45.19.84.36.9h-2.14c.16-.06.35-.45.35-.9v-2.48h-4.84v2.48c0,.45.2.84.35.9h-2.15c.17-.06.36-.45.36-.9v-5.7c0-.45-.2-.84-.36-.9h2.15c-.16.06-.35.45-.35.9v2.42h4.84v-2.42c0-.45-.19-.84-.35-.9h2.14c-.17.06-.36.45-.36.9Z" style="fill:#0c0d0f;"/><path d="M212.95,91.21h-3.72v2.54h3.12c.58,0,1.09-.15,1.17-.27v1.35c-.08-.13-.58-.28-1.17-.28h-3.12v2.56h4.19c.58,0,1.09-.15,1.17-.28v1.08h-7.15c.17-.06.36-.45.36-.9v-5.7c0-.45-.2-.84-.36-.9h6.68v1.07c-.08-.12-.58-.27-1.17-.27Z" style="fill:#0c0d0f;"/><path d="M229.44,96.96l-2.16-4.75-2.17,4.75c-.2.43-.17.85-.01.93h-2.22c.13-.09.14-.51-.04-.94l-2.6-5.8c-.16-.33-.33-.54-.55-.74h2.08c-.13.1-.14.51.06.93l2.33,5.19,2.37-5.2c.18-.42.16-.83.03-.93h1.83c-.13.09-.16.5.03.93l2.34,5.2,2.35-5.19c.21-.42.18-.83.05-.93h1.72c-.22.19-.39.41-.55.74l-2.61,5.8c-.18.43-.16.85-.01.95h-2.22c.13-.09.16-.51-.04-.94Z" style="fill:#0c0d0f;"/><path d="M245.3,94.15c0,2.6-2.21,3.89-4.76,3.89s-4.76-1.29-4.76-3.89,2.2-3.89,4.76-3.89,4.76,1.29,4.76,3.89ZM240.55,97.23c1.79,0,3.3-1.05,3.3-3.08s-1.51-3.09-3.3-3.09-3.3,1.05-3.3,3.09,1.51,3.08,3.3,3.08Z" style="fill:#0c0d0f;"/><path d="M255.09,92.9c0,1.33-.98,2.11-2.28,2.35l2.13,2.05c.25.26.51.47.85.61h-1.55c-.35-.07-.6-.25-.82-.5l-2.13-2.03h-2.02v1.63c0,.45.2.84.35.9h-2.15c.17-.06.36-.45.36-.9v-5.7c0-.45-.2-.84-.36-.9h4.15c1.91,0,3.46.78,3.46,2.49ZM251.53,94.58c1.09,0,2.11-.58,2.11-1.68s-1.01-1.68-2.11-1.69h-2.25v3.37h2.25Z" style="fill:#0c0d0f;"/><path d="M259.32,91.31v5.8h4.03c.58,0,1.09-.15,1.17-.28v1.08h-6.99c.17-.07.36-.45.36-.9v-5.7c0-.45-.2-.84-.36-.9h2.15c-.16.06-.35.45-.35.9Z" style="fill:#0c0d0f;"/><path d="M274.61,94.16c0,2.51-2.2,3.75-4.76,3.75h-3.6c.17-.07.36-.45.36-.9v-5.7c0-.45-.2-.84-.36-.9h3.6c2.56,0,4.76,1.23,4.76,3.75ZM269.85,97.11c1.81,0,3.31-.99,3.31-2.95s-1.51-2.95-3.31-2.95h-1.81v5.9h1.81Z" style="fill:#0c0d0f;"/><path d="M137.84,25.74l-3.58,11.24c-.31-1.07-2.13-7.85-2.45-8.85-.13-.5-.25-1.07-.25-1.57,0-.25,0-.56.13-.82v-.13s-.82.13-1.38.19c-.5.06-1.38.25-1.38.25l.13.13c.31.38.44.69.82,2.07l3.89,13.06h.25l3.64-11.11,3.77,11.11h.25l3.89-12.99c.19-.75.5-1.51.94-2.13h.06c-.13-.13-.5-.19-1-.31s-1-.19-1-.19v.13c.13.19.19.44.19.63,0,.63-.13,1.26-.31,1.88,0,0-2.45,8.47-2.51,8.79l-3.77-11.3h-.13l-.19-.06ZM146.63,7.97h0c.5,1.13.75,2.2.75,4.83,0,0-.13,7.97-.13,8.1-3.2-.56-6.47-.94-9.73-1-3.26,0-6.47.38-9.67,1v-8.1c0-2.57.38-3.64.82-4.77h0c0-.06-4.39-.06-4.39-.06h0c.5,1.13.75,2.2.75,4.83v20.21c.06,1.63-.19,3.26-.82,4.77h0c0,.06,4.33.06,4.33.06h0c-.5-1.13-.75-2.2-.75-4.83v-10.04c3.2-.69,6.47-1.07,9.73-1,3.26,0,6.53.31,9.73,1,0,.06.13,10.04.13,10.04,0,2.64-.31,3.7-.69,4.77h0c0,.06,4.27.06,4.27.06h0c-.5-1.13-.75-2.2-.75-4.83V12.81c0-2.57.38-3.64.82-4.77h0c0-.06-4.46-.06-4.46-.06h.06ZM136.52,0h0c-.38.88-.5,1.76-.44,2.64v12.3h2.07c2.01,0,4.14.31,5.08-.63h.06l-.75,2.01c-1.44-.19-2.95-.25-4.39-.25s-2.57,0-4.58.19h-.06c.31-.88.5-1.76.44-2.64V2.64c.06-.88,0-1.76-.38-2.57h0c0-.06,3.08-.06,3.08-.06h-.13Z" style="fill:#0c0d0f;"/><line x1=".45" y1="82.05" x2="274.79" y2="82.05" style="fill:none; stroke:#0c0d0f; stroke-miterlimit:10;"/></g></svg>