<svg xmlns="http://www.w3.org/2000/svg" width="41" height="38" viewBox="0 0 41 38" fill="currentColor">
    <path
        d="M8.21745 10.6161L11.4054 9.64006C11.6567 9.56324 11.9206 9.53664 12.1821 9.56181C12.4435 9.58697 12.6975 9.66339 12.9295 9.78671C13.1614 9.91002 13.3668 10.0778 13.534 10.2805C13.7011 10.4832 13.8266 10.7168 13.9034 10.9681C13.9803 11.2193 14.0069 11.4832 13.9817 11.7447C13.9565 12.0062 13.8801 12.2601 13.7568 12.4921C13.6335 12.7241 13.4657 12.9295 13.263 13.0966C13.0603 13.2637 12.8267 13.3892 12.5754 13.4661L4.92545 15.8061C4.6741 15.8829 4.41007 15.9095 4.14846 15.8842C3.88685 15.8589 3.63278 15.7823 3.40078 15.6588C3.16878 15.5353 2.96341 15.3673 2.7964 15.1643C2.62938 14.9614 2.50401 14.7275 2.42745 14.4761L0.0874486 6.82606C0.0106253 6.57484 -0.0159646 6.31095 0.00919722 6.04945C0.034359 5.78796 0.11078 5.53398 0.234096 5.30202C0.357412 5.07006 0.525209 4.86466 0.727906 4.69755C0.930602 4.53043 1.16423 4.40488 1.41545 4.32806C1.92281 4.17291 2.47102 4.22566 2.93949 4.47471C3.40795 4.72375 3.7583 5.1487 3.91345 5.65606L4.79345 8.53806C9.60945 1.12006 19.1634 -2.06994 27.6454 1.40606C30.1821 2.44566 32.4601 4.02859 34.3191 6.04343C36.1781 8.05828 37.573 10.4561 38.4054 13.0681C38.4908 13.3197 38.5252 13.5858 38.5065 13.8508C38.4879 14.1158 38.4166 14.3745 38.2969 14.6117C38.1772 14.8489 38.0115 15.0598 37.8093 15.2323C37.6071 15.4047 37.3727 15.5351 37.1196 15.6159C36.8664 15.6966 36.5998 15.7262 36.3351 15.7028C36.0705 15.6793 35.8131 15.6034 35.5781 15.4794C35.3432 15.3554 35.1352 15.1859 34.9665 14.9806C34.7978 14.7754 34.6716 14.5386 34.5954 14.2841C33.7505 11.6308 32.1724 9.27063 30.0432 7.47606C27.9141 5.68148 25.3208 4.5257 22.5628 4.14216C19.8048 3.75861 16.9945 4.16295 14.4565 5.30848C11.9185 6.45402 9.75429 8.29403 8.21745 10.6161ZM32.8714 27.0061L29.3214 27.8921C29.0644 27.9625 28.7959 27.9809 28.5316 27.9462C28.2673 27.9114 28.0127 27.8242 27.7826 27.6896C27.5526 27.555 27.3517 27.3758 27.1919 27.1624C27.0321 26.9491 26.9165 26.706 26.852 26.4474C26.7875 26.1888 26.7753 25.9199 26.8162 25.6565C26.8571 25.3931 26.9502 25.1406 27.0901 24.9137C27.23 24.6868 27.4138 24.4901 27.6307 24.3353C27.8477 24.1805 28.0934 24.0706 28.3534 24.0121L35.6394 22.1941C36.0192 22.0138 36.4461 21.9579 36.8594 22.0341C37.2577 22.0864 37.631 22.2576 37.9307 22.5251C38.2303 22.7927 38.4425 23.1442 38.5394 23.5341L40.4754 31.2941C40.5901 31.8037 40.5009 32.338 40.2267 32.7827C39.9525 33.2274 39.5152 33.5472 39.0084 33.6737C38.5015 33.8001 37.9653 33.7232 37.5143 33.4594C37.0634 33.1956 36.7336 32.7659 36.5954 32.2621L35.9354 29.6181C34.0098 32.3892 31.3724 34.5897 28.301 35.9877C25.2297 37.3857 21.8382 37.9295 18.4838 37.5618C15.1294 37.1941 11.9362 35.9285 9.24066 33.8983C6.54514 31.8681 4.44707 29.1486 3.16745 26.0261L2.64745 24.7581C2.54791 24.515 2.49722 24.2547 2.49827 23.992C2.49933 23.7293 2.55211 23.4695 2.65361 23.2272C2.7551 22.9849 2.90332 22.765 3.0898 22.58C3.27628 22.395 3.49737 22.2486 3.74045 22.1491C4.23136 21.948 4.78203 21.9502 5.27132 22.1552C5.51358 22.2567 5.73349 22.4049 5.91848 22.5914C6.10346 22.7779 6.24991 22.999 6.34945 23.2421L6.86945 24.5081C7.88895 26.9957 9.56844 29.1577 11.7267 30.7608C13.8849 32.3638 16.4399 33.347 19.1161 33.6043C21.7922 33.8616 24.4877 33.3832 26.9119 32.2208C29.336 31.0583 31.3967 29.2539 32.8714 27.0061Z"
         />
</svg>