<?xml version="1.0" encoding="UTF-8"?><svg id="b" xmlns="http://www.w3.org/2000/svg" width="600" height="267.3" viewBox="0 0 600 267.3"><g id="c"><g id="d"><path d="M21.8,241.3h-3.8c-.4-3.9-2.7-6-6.7-6s-6.3,2.2-6.3,5.2.7,2.7,2.1,3.6c.7.5,1.5.9,2.4,1.3.3.1,1.5.7,3.7,1.6,5.1,2.3,6.9,3.4,8.2,5.4.9,1.4,1.4,3.2,1.4,5,0,5.8-4.6,9.7-11.3,9.7s-11.2-3.8-11.5-11h3.8c.3,4.9,3.1,7.6,7.9,7.6s7.1-2.5,7.1-5.9-.7-3.1-2.1-4.2c-1.1-.9-1.9-1.3-5.3-2.9-4.6-2-6.7-3.2-8-4.4-1.5-1.5-2.3-3.5-2.3-5.6,0-5.2,4.4-8.9,10.4-8.9s10,3.6,10.3,9.5" style="fill:#0c0d0f;"/><polygon points="66.5 232.5 59.7 261.6 52.6 232.5 49.2 232.5 42.1 261.6 35.4 232.5 31.7 232.5 39.9 266.8 44.1 266.8 50.9 240.2 57.7 266.8 61.9 266.8 70.1 232.5 66.5 232.5" style="fill:#0c0d0f;"/><rect x="80.6" y="232.5" width="3.9" height="34.1" style="fill:#0c0d0f;"/><path d="M118.4,241.3h-3.8c-.4-3.9-2.7-6-6.7-6s-6.3,2.2-6.3,5.2.7,2.7,2.1,3.6c.7.5,1.5.9,2.4,1.3.3.1,1.5.7,3.7,1.6,5.1,2.3,6.9,3.4,8.2,5.4.9,1.4,1.4,3.2,1.4,5,0,5.8-4.6,9.7-11.3,9.7s-11.2-3.8-11.5-11h3.8c.3,4.9,3.1,7.6,7.9,7.6s7.1-2.5,7.1-5.9-.7-3.1-2.1-4.2c-1.1-.9-1.9-1.3-5.3-2.9-4.5-2-6.7-3.2-8-4.4-1.5-1.5-2.3-3.5-2.3-5.6,0-5.2,4.3-8.9,10.3-8.9,6.4,0,10.1,3.6,10.4,9.5" style="fill:#0c0d0f;"/><path d="M151.9,241.3h-3.8c-.4-3.9-2.7-6-6.7-6s-6.3,2.2-6.3,5.2.7,2.7,2.1,3.6c.7.5,1.5.9,2.4,1.3.2.1,1.5.7,3.7,1.6,5.1,2.3,6.9,3.4,8.2,5.4.9,1.4,1.4,3.2,1.4,5,0,5.8-4.5,9.7-11.3,9.7s-11.2-3.8-11.5-11h3.8c.3,4.9,3.1,7.6,7.9,7.6s7.1-2.5,7.1-5.9-.7-3.1-2.1-4.2c-1.1-.9-1.9-1.3-5.3-2.9-4.6-2-6.7-3.2-8-4.4-1.5-1.5-2.3-3.5-2.3-5.6,0-5.2,4.4-8.9,10.3-8.9,6.3,0,10.1,3.6,10.4,9.5" style="fill:#0c0d0f;"/><path d="M192.8,263.3h2.5c5.5,0,7-.3,9.4-1.7,3.5-2.2,5.4-6.4,5.4-12.1s-2.2-10.3-6-12.3c-2.2-1.2-3.6-1.4-9.7-1.4h-1.6v27.5h0ZM189,232.5h5.4c3.6,0,5,.1,6.9.4,2,.2,3.7.8,5.2,1.6,4.8,2.7,7.8,8.4,7.8,15.1s-3,12.6-8.1,15.2c-2.9,1.5-5.1,1.9-12.3,1.9h-5v-34.2h.1Z" style="fill:#0c0d0f;"/><polygon points="226.6 232.5 226.6 266.6 245.8 266.6 245.8 263.3 230.4 263.3 230.4 250.6 244.4 250.6 244.4 247.3 230.4 247.3 230.4 235.8 245.5 235.8 245.5 232.5 226.6 232.5" style="fill:#0c0d0f;"/><polygon points="257.7 232.5 257.7 266.6 276.4 266.6 276.4 263.3 261.7 263.3 261.7 232.5 257.7 232.5" style="fill:#0c0d0f;"/><path d="M287,232.5h3.8v20.1c0,6,.3,7.4,2,9.1,1.4,1.4,3.8,2.2,6.3,2.2,4.3,0,7.4-2.1,8-5.4.3-1.5.3-2.2.3-5.8v-20.1h3.9v22.7c0,4.2-.8,6.6-2.7,8.6-2.2,2.3-5.4,3.4-9.5,3.4s-9.7-2.3-11.3-6.4c-.6-1.4-.8-3.2-.8-5.7v-22.7h0Z" style="fill:#0c0d0f;"/><polygon points="342.6 232.5 334.5 245.6 326.6 232.5 322.1 232.5 332.3 248.8 321.5 266.6 325.9 266.6 334.5 252.3 343.2 266.6 347.6 266.6 336.8 248.8 347 232.5 342.6 232.5" style="fill:#0c0d0f;"/><polygon points="358.1 232.5 358.1 266.6 377.4 266.6 377.4 263.3 362 263.3 362 250.6 376 250.6 376 247.3 362 247.3 362 235.8 377.1 235.8 377.1 232.5 358.1 232.5" style="fill:#0c0d0f;"/><polygon points="434.4 232.5 434.4 247.2 418.2 247.2 418.2 232.5 414.4 232.5 414.4 266.6 418.2 266.6 418.2 250.3 434.4 250.3 434.4 266.6 438.3 266.6 438.3 232.5 434.4 232.5" style="fill:#0c0d0f;"/><path d="M454.6,249.6c0,8.6,3.9,14.3,9.9,14.3s9.9-5.7,9.9-14.3-3.9-14.3-9.9-14.3-9.9,5.6-9.9,14.3M450.5,249.6c0-10.5,5.7-17.7,14.1-17.7s14,7.2,14,17.7-5.7,17.6-14,17.6-14.1-7.1-14.1-17.6" style="fill:#0c0d0f;"/><polygon points="486.2 232.5 486.2 235.8 495.1 235.8 495.1 266.6 499 266.6 499 235.8 507.9 235.8 507.9 232.5 486.2 232.5" style="fill:#0c0d0f;"/><polygon points="518.6 232.5 518.6 266.6 537.8 266.6 537.8 263.3 522.4 263.3 522.4 250.6 536.4 250.6 536.4 247.3 522.4 247.3 522.4 235.8 537.5 235.8 537.5 232.5 518.6 232.5" style="fill:#0c0d0f;"/><polygon points="549.7 232.5 549.7 266.6 568.4 266.6 568.4 263.3 553.7 263.3 553.7 232.5 549.7 232.5" style="fill:#0c0d0f;"/><path d="M599,241.3h-3.8c-.4-3.9-2.7-6-6.7-6s-6.3,2.2-6.3,5.2.7,2.7,2.1,3.6c.7.5,1.5.9,2.4,1.3.3.1,1.5.7,3.7,1.6,5.1,2.3,6.9,3.4,8.2,5.4.9,1.4,1.4,3.2,1.4,5,0,5.8-4.6,9.7-11.3,9.7s-11.2-3.8-11.5-11h3.8c.3,4.9,3.1,7.6,7.8,7.6s7.1-2.5,7.1-5.9-.7-3.1-2.1-4.2c-1.1-.9-1.9-1.3-5.3-2.9-4.6-2-6.7-3.2-8-4.4-1.5-1.5-2.3-3.5-2.3-5.6,0-5.2,4.3-8.9,10.3-8.9,6.4,0,10.2,3.6,10.5,9.5" style="fill:#0c0d0f;"/><path d="M311.6,4.9h70.5v14.1h-19.5v147.6h19.5v14.1h-70.5v-14.1h18.3v-56.5h-59.8v56.5h18.3v14.1h-70.6v-14.1h19.6V19.1h-19.4V4.9h70.4v14.2h-18.4v55.2h59.9V19.1h-18.3V4.9h0ZM306.7,0v23.9h18.4v45.4h-50.1V23.9h18.4V0h-80.3v23.9h19.5v137.7h-19.7v23.9h80.4v-23.9h-18.3v-46.7h50.1v46.7h-18.4v23.9h80.4v-23.9h-19.6V23.9h19.6V0h-80.4Z" style="fill:#0c0d0f;"/><polygon points="255.6 75.2 259.9 87.3 272.9 87.6 262.5 95.3 266.3 107.6 255.6 100.3 245 107.6 248.8 95.3 238.4 87.6 251.4 87.3 255.6 75.2" style="fill:#0c0d0f;"/><polygon points="300 75.2 304.3 87.3 317.2 87.6 306.9 95.3 310.6 107.6 300 100.3 289.4 107.6 293.1 95.3 282.8 87.6 295.7 87.3 300 75.2" style="fill:#0c0d0f;"/><polygon points="344.4 75.2 348.6 87.3 361.6 87.6 351.2 95.3 355 107.6 344.4 100.3 333.7 107.6 337.5 95.3 327.1 87.6 340.1 87.3 344.4 75.2" style="fill:#0c0d0f;"/><polygon points="388.7 75.2 393 87.3 406 87.6 395.6 95.3 399.4 107.6 388.7 100.3 378.1 107.6 381.8 95.3 371.5 87.6 384.5 87.3 388.7 75.2" style="fill:#0c0d0f;"/><polygon points="211.3 75.2 215.5 87.3 228.5 87.6 218.2 95.3 221.9 107.6 211.3 100.3 200.6 107.6 204.4 95.3 194.1 87.6 207 87.3 211.3 75.2" style="fill:#0c0d0f;"/></g></g></svg>