<?xml version="1.0" encoding="UTF-8" standalone="no"?>
<!-- Created with Inkscape (http://www.inkscape.org/) -->

<svg
   version="1.1"
   id="svg2"
   width="261.25333"
   height="261.25333"
   viewBox="0 0 261.25333 261.25333"
   sodipodi:docname="ST_EN_Label-Swisstainable-neutral_1x1_64177.eps"
   xmlns:inkscape="http://www.inkscape.org/namespaces/inkscape"
   xmlns:sodipodi="http://sodipodi.sourceforge.net/DTD/sodipodi-0.dtd"
   xmlns="http://www.w3.org/2000/svg"
   xmlns:svg="http://www.w3.org/2000/svg">
  <defs
     id="defs6" />
  <sodipodi:namedview
     id="namedview4"
     pagecolor="#ffffff"
     bordercolor="#000000"
     borderopacity="0.25"
     inkscape:showpageshadow="2"
     inkscape:pageopacity="0.0"
     inkscape:pagecheckerboard="0"
     inkscape:deskcolor="#d1d1d1" />
  <g
     id="g8"
     inkscape:groupmode="layer"
     inkscape:label="ink_ext_XXXXXX"
     transform="matrix(1.3333333,0,0,-1.3333333,0,261.25333)">
    <g
       id="g10"
       transform="scale(0.1)">
      <path
         d="M 1959.36,979.688 C 1959.36,438.621 1520.74,0.0117188 979.676,0.0117188 438.617,0.0117188 0,438.621 0,979.688 c 0,541.062 438.617,979.682 979.676,979.682 541.064,0 979.684,-438.62 979.684,-979.682 v 0"
         style="fill:#23984d;fill-opacity:1;fill-rule:nonzero;stroke:none"
         id="path12" />
      <path
         d="m 1532.41,432.602 232.9,-38.012 -130.29,167.262 -0.45,0.507 -144.68,161.129 46.92,-137.59 -61.31,-71.148 56.91,-82.148"
         style="fill:#46a75f;fill-opacity:1;fill-rule:nonzero;stroke:none"
         id="path14" />
      <path
         d="m 1187.83,431.031 117.1,75.899 -263.45,188.109 -142.578,381.071 -105.918,-54.38 -363.379,353.85 -23.992,59.11 -31.222,38.81 -54.168,-287.86 245.89,-102.95 L 415.473,975.527 994.215,606.559 927.961,477.148 1142.13,151.34 h 360.78 c 38.44,24.332 75.04,51.269 109.6,80.551 l -424.68,199.14"
         style="fill:#46a75f;fill-opacity:1;fill-rule:nonzero;stroke:none"
         id="path16" />
      <path
         d="m 1633.78,563.051 0.46,-0.492 131.07,-167.969 -232.88,38.058 -56.93,82.102 61.31,71.148 -46.92,137.59 -184.96,-216.558 -117.1,-75.899 424.68,-199.14 c 212.14,179.711 346.85,448 346.85,747.797 0,18.457 -0.55,36.782 -1.56,54.992 L 1739.49,596.75 1633.78,563.051"
         style="fill:#235141;fill-opacity:1;fill-rule:nonzero;stroke:none"
         id="path18" />
      <path
         d="m 979.676,0.0117188 c 192.414,0 371.854,55.5077812 523.234,151.3282812 h -360.78 l -214.169,325.808 66.254,129.411 -578.742,368.968 150.64,107.163 -245.89,102.95 54.168,287.86 -175.016,-89.6 c 0,0 -117.0312,-160.53 -123.6055,-170.53 C 73.1055,1209.3 42.293,1155.76 6.62891,1093.59 2.30078,1056.22 0,1018.23 0,979.688 0,438.621 438.617,0.0117188 979.676,0.0117188"
         style="fill:#235141;fill-opacity:1;fill-rule:nonzero;stroke:none"
         id="path20" />
      <path
         d="m 1216.3,1617.61 c -80.44,0 -145.65,-65.22 -145.65,-145.66 0,-80.45 65.21,-145.66 145.65,-145.66 80.45,0 145.66,65.21 145.66,145.66 0,80.44 -65.21,145.66 -145.66,145.66"
         style="fill:#db1d2b;fill-opacity:1;fill-rule:nonzero;stroke:none"
         id="path22" />
      <path
         d="m 1242.02,1497.66 v 60.01 h -51.44 v -60.01 h -60 v -51.43 h 60 v -60.01 h 51.44 v 60.01 h 60.01 v 51.43 h -60.01 v 0"
         style="fill:#ffffff;fill-opacity:1;fill-rule:nonzero;stroke:none"
         id="path24" />
      <path
         d="m 596.93,742.801 c 0,57.461 29.675,104.179 52.406,104.179 17.047,0 23.359,-13.25 26.519,-22.73 l -0.632,-6.941 c -5.051,-56.2 -29.676,-119.34 -56.196,-119.34 -17.05,0 -22.097,21.472 -22.097,44.832 z m 549.32,180.59 c 0,53.031 28.42,107.329 53.04,107.329 15.79,0 23.37,-12.62 27.15,-22.73 v -3.78 c -3.78,-61.249 -30.94,-126.28 -56.82,-126.28 -18.31,0 -23.37,20.199 -23.37,45.461 z m 561.32,205.199 c 0,36.62 18.31,79.56 42.31,79.56 13.89,0 18.31,-11.36 18.31,-25.25 0,-31.57 -19.57,-52.41 -60.62,-56.83 0,0.63 0,1.26 0,2.52 z m -101.65,174.9 c 13.26,0 15.15,-32.83 15.15,-50.51 0,-46.09 -13.25,-113.65 -59.98,-142.69 3.16,106.7 30.3,193.2 44.83,193.2 z M 604.508,672.09 c 32.832,0 57.457,32.191 66.297,68.191 0,-28.422 7.574,-39.781 25.883,-39.781 31.574,0 65.671,50.512 80.191,89.031 0,-3.793 0,-6.953 0,-8.84 0,-27.152 8.844,-43.562 29.672,-43.562 47.359,0 83.351,102.281 92.82,135.75 l -6.308,-105.449 39.14,12.629 0.637,9.472 c 10.734,105.449 56.824,183.102 76.4,183.102 5.68,0 7.58,-6.942 7.58,-17.043 0,-19.578 -11.37,-80.82 -11.37,-108.61 0,-18.941 5.05,-37.871 29.68,-37.871 29.04,0 59.98,27.141 78.29,66.922 8.84,-15.781 22.73,-23.992 40.41,-23.992 34.72,0 57.46,31.563 67.56,66.301 1.27,-21.469 5.68,-35.988 27.78,-35.988 45.46,0 80.82,68.82 85.88,85.867 8.2,-26.52 25.88,-40.41 52.4,-40.41 51.78,0 97.87,54.933 97.87,113.651 0,13.89 -4.42,25.25 -10.1,34.1 7.57,-1.9 15.15,-2.52 23.35,-2.52 6.95,0 14.53,0.62 21.47,1.89 3.79,-60.62 30.32,-83.352 59.99,-83.352 40.41,0 73.88,41.672 90.29,88.392 9.47,-25.25 32.83,-39.14 61.88,-39.14 40.41,0 77.03,27.15 77.03,47.99 0,8.83 -8.2,17.05 -14.52,17.05 -5.68,-13.9 -20.83,-42.94 -51.78,-42.94 -25.88,0 -32.83,22.1 -34.72,46.73 58.72,3.79 97.86,35.35 97.86,71.97 0,34.73 -23.36,48.62 -51.77,48.62 -35.99,0 -87.77,-39.15 -89.03,-117.45 -10.1,-35.98 -43.57,-98.49 -76.4,-98.49 -23.36,0 -28.41,28.41 -28.41,72.61 v 1.26 c 56.19,27.78 98.5,91.56 98.5,166.7 0,37.88 -19.58,66.92 -48.62,66.92 -44.2,0 -89.66,-103.55 -90.93,-225.41 -3.78,-0.63 -7.57,-0.63 -11.99,-0.63 -36.62,0 -65.67,28.42 -82.71,54.93 l -29.05,-30.94 c 5.05,-6.95 16.41,-17.04 31.57,-25.88 8.21,-8.21 17.05,-27.78 17.05,-56.2 0,-42.303 -22.73,-88.4 -50.52,-88.4 -17.04,0 -25.88,13.89 -25.88,63.78 0,33.46 16.42,235.51 16.42,235.51 l -39.15,-12 c -3.16,-41.67 -16.42,-185.63 -16.42,-219.72 0,-6.95 0,-13.27 0.63,-18.949 -8.84,-37.883 -47.35,-90.922 -63.14,-90.922 -5.68,0 -6.94,4.422 -6.94,18.941 0,36 10.73,146.49 10.73,146.49 l -39.15,-12.63 c 0,0 -0.63,-10.1 -1.9,-22.73 -5.68,8.21 -15.15,14.52 -30.3,14.52 -44.2,0 -93.45,-58.087 -93.45,-135.751 0,-5.688 0.63,-11.368 1.26,-15.789 -13.25,-32.84 -37.25,-65.668 -53.66,-65.668 -5.06,0 -6.32,3.789 -6.32,8.207 0,25.269 11.36,69.461 11.36,108.613 0,27.148 -10.1,44.195 -37.24,44.195 -35.372,0 -67.567,-41.668 -82.723,-121.867 l 5.051,90.297 -39.145,-13.266 C 893.691,882.352 842.543,763 819.82,763 c -3.789,0 -3.789,4.43 -3.789,12.629 0,0 3.789,81.461 8.203,149.652 l -39.152,-12.633 c -1.254,-20.839 -3.148,-40.41 -4.414,-58.078 -10.105,-58.73 -55.563,-126.922 -67.563,-126.922 -3.156,0 -3.785,1.903 -3.785,8.84 0,23.992 8.84,152.172 8.84,152.172 l -39.148,-12.629 -1.895,-27.781 c -4.422,10.109 -13.262,20.199 -30.941,20.199 -41.039,0 -90.289,-51.769 -90.289,-129.437 0,-4.41 0,-8.203 0.633,-11.364 -15.79,-30.308 -46.094,-72.609 -70.719,-72.609 -16.418,0 -18.313,15.789 -18.313,45.461 0,18.941 1.895,49.879 4.422,82.711 l 65.031,21.469 1.266,26.531 -63.773,-20.852 c 1.894,22.731 4.418,46.102 6.949,66.93 l -40.41,-12.629 c -3.16,-20.199 -5.684,-44.191 -7.578,-68.18 l -39.149,-12.64 -1.262,-26.52 37.883,12.641 c -2.523,-34.102 -3.789,-64.41 -3.789,-78.301 0,-39.14 10.106,-64.398 40.41,-64.398 47.989,0 79.559,48.617 94.078,77.019 7.579,-21.461 23.364,-32.191 42.942,-32.191 z M 130.316,831.211 c 0,22.09 44.2,52.391 68.825,69.449 18.941,13.25 75.769,49.871 133.855,87.129 17.055,-15.156 28.414,-30.937 28.414,-47.988 0,-64.403 -115.547,-135.75 -185,-135.75 -26.519,0 -46.094,8.199 -46.094,27.16 z m 799.368,303.059 c 0,34.11 -34.727,66.94 -30.313,110.5 l -23.363,-6.94 c -13.258,-50.52 -75.133,-174.28 -95.969,-174.28 -5.684,0 -6.32,2.54 -6.32,18.95 0,0 4.426,80.82 7.582,126.91 l -39.778,-11.99 c 0,0 -19.574,-54.3 -38.519,-54.3 -20.207,0 -24.625,20.84 -27.149,46.72 l -36.621,-17.68 c 0,-15.15 5.684,-30.31 16.414,-40.41 -3.16,-73.24 -25.886,-121.23 -42.933,-121.23 -20.207,0 -8.844,107.97 -1.895,145.86 l -41.047,-12 c -1.89,-10.11 -3.152,-20.2 -4.418,-28.42 -7.574,-59.34 -33.46,-135.745 -49.878,-135.745 -8.84,0 -10.735,13.258 -10.735,35.355 0,34.1 4.422,71.98 10.102,111.76 l -41.039,-12 c -0.633,-5.04 -1.895,-10.1 -2.528,-15.15 -27.152,-17.05 -78.293,-49.25 -128.175,-80.82 -49.879,41.05 -122.493,75.77 -122.493,118.7 0,58.73 154.692,148.39 242.461,148.39 24.625,0 42.938,-5.06 42.938,-20.21 0,-20.2 -35.363,-63.77 -137.649,-109.23 l 22.102,-29.05 c 0,0 141.434,50.51 141.434,143.97 0,26.52 -20.84,52.4 -73.247,52.4 -102.918,0 -270.242,-75.77 -270.242,-186.27 0,-58.09 76.403,-96.6 127.547,-136.38 C 265.438,970.113 221.238,941.699 207.977,932.859 151.152,894.34 93.0664,854.57 93.0664,813.52 c 0,-31.571 33.4606,-53.04 77.0316,-53.04 94.078,0 220.363,94.711 220.363,185.641 0,21.465 -12.633,41.035 -30.941,58.719 44.195,27.78 85.871,54.3 108.601,68.2 -1.894,-15.79 -2.527,-29.06 -2.527,-40.42 0,-64.401 20.207,-75.768 37.254,-75.768 28.41,0 49.25,35.355 61.25,75.768 6.941,-37.882 25.882,-45.464 39.773,-45.464 38.516,0 75.774,77.664 82.086,131.964 h 1.895 c 22.734,0 41.043,20.84 51.14,39.78 -3.156,-36.62 -5.051,-61.87 -5.051,-80.82 0,-31.57 9.477,-43.57 27.786,-43.57 47.355,0 94.714,110.5 116.183,164.8 1.895,-19.57 9.469,-42.93 9.469,-68.82 0,-20.2 -5.684,-38.52 -22.102,-38.52 -10.101,0 -18.945,8.21 -20.839,10.74 -8.836,-18.32 6.949,-32.83 27.785,-32.83 11.996,0 23.359,3.16 32.832,9.46 42.937,26.53 80.183,116.81 94.082,160.38 3.153,-27.78 13.893,-51.77 13.893,-78.29 0,-20.21 -9.47,-30.94 -22.737,-30.94 -8.84,0 -15.152,5.68 -18.941,9.47 -7.575,-19.57 4.418,-32.83 25.89,-32.83 31.568,0 57.458,22.73 57.458,61.87 0,45.46 -39.15,67.56 -30.94,113.03 l -29.045,-8.85 c -6.317,-33.46 -35.36,-102.29 -65.031,-145.85 0,1.89 0,4.42 0,6.94 z M 758.57,1240.99 c 17.68,0 29.043,15.78 29.043,32.83 0,15.15 -5.679,23.99 -18.945,23.99 -15.152,0 -27.781,-14.52 -27.781,-34.73 0,-11.36 5.054,-22.09 17.683,-22.09 z m 42.938,-296.771 c 17.676,0 29.039,15.789 29.039,32.84 0,15.148 -5.684,23.991 -18.942,23.991 -15.152,0 -27.777,-14.527 -27.777,-34.726 0,-11.363 5.051,-22.105 17.68,-22.105 v 0"
         style="fill:#ffffff;fill-opacity:1;fill-rule:nonzero;stroke:none"
         id="path26" />
    </g>
  </g>
</svg>
